<?xml version="1.0" encoding="UTF-8" standalone="no"?>
<svg
   xmlns:dc="http://purl.org/dc/elements/1.1/"
   xmlns:cc="http://creativecommons.org/ns#"
   xmlns:rdf="http://www.w3.org/1999/02/22-rdf-syntax-ns#"
   xmlns:svg="http://www.w3.org/2000/svg"
   xmlns="http://www.w3.org/2000/svg"
   id="svg6186"
   version="1.1"
   viewBox="0 0 26.458334 17.326122"
   height="17.326122mm"
   width="26.458334mm">
  <defs
     id="defs6180" />
  <metadata
     id="metadata6183">
    <rdf:RDF>
      <cc:Work
         rdf:about="">
        <dc:format>image/svg+xml</dc:format>
        <dc:type
           rdf:resource="http://purl.org/dc/dcmitype/StillImage" />
        <dc:title></dc:title>
      </cc:Work>
    </rdf:RDF>
  </metadata>
  <g
     transform="translate(15.349103,-172.1739)"
     id="layer1">
    <g
       style="fill:#ffffff"
       transform="translate(-225.12589,-129.01423)"
       id="layer1-5">
      <g
         style="fill:#ffffff"
         transform="matrix(0.37485008,0,0,0.37485008,257.02839,192.43689)"
         id="g14079">
        <g
           style="fill:#ffffff"
           id="g4796"
           transform="matrix(0.35277777,0,0,-0.35277777,-113.57057,320.00891)">
          <path
             d="M 0,0 H 12.621 V -45.145 L 0.825,-45.177 v 10.614 c -0.73,-4.894 -7.354,-9.209 -8.79,-9.769 -1.427,-0.547 -2.871,-1.404 -7.226,-1.38 -4.355,0.024 -9.234,1.57 -13.819,6.195 -4.379,4.411 -6.378,10.142 -6.378,16.857 0,6.973 2.055,12.681 6.164,17.139 4.117,4.446 9.122,6.667 15.016,6.667 2.69,0 5.228,-0.503 7.6,-1.534 C -4.22,-1.392 -2.023,-2.943 0,-4.989 Z m -11.907,-9.293 c -3.499,0 -6.41,-1.241 -8.734,-3.716 -2.309,-2.475 -3.467,-5.653 -3.467,-9.516 0,-3.899 1.174,-7.127 3.53,-9.638 2.356,-2.507 5.26,-3.768 8.719,-3.768 3.538,0 6.496,1.242 8.837,3.717 2.348,2.471 3.514,5.715 3.514,9.717 0,3.938 -1.166,7.108 -3.514,9.551 -2.341,2.427 -5.315,3.653 -8.885,3.653 M 152.063,0 h 12.629 v -45.145 l -11.804,-0.032 v 10.614 c -0.706,-4.894 -7.346,-9.209 -8.766,-9.769 -1.435,-0.547 -2.879,-1.404 -7.235,-1.38 -4.363,0.024 -9.233,1.57 -13.826,6.195 -4.372,4.411 -6.378,10.142 -6.378,16.857 0,6.973 2.055,12.681 6.171,17.139 4.117,4.446 9.116,6.667 15.009,6.667 2.69,0 5.244,-0.503 7.616,-1.534 2.387,-1.004 4.569,-2.555 6.584,-4.601 z m -11.899,-9.293 c -3.515,0 -6.41,-1.241 -8.726,-3.716 -2.309,-2.475 -3.474,-5.653 -3.474,-9.516 0,-3.899 1.165,-7.127 3.537,-9.638 2.357,-2.507 5.268,-3.768 8.695,-3.768 3.561,0 6.505,1.242 8.861,3.717 2.339,2.471 3.506,5.715 3.506,9.717 0,3.938 -1.167,7.108 -3.506,9.551 -2.356,2.427 -5.307,3.653 -8.893,3.653 M 44.122,1.167 c -2.19,0 -4.315,-0.433 -6.402,-1.273 -2.078,-0.857 -4.403,-2.369 -6.981,-4.519 V 0 H 19.427 v -45.145 h 11.312 v 18.119 c 0,4.688 0.167,7.742 0.5,9.154 0.643,2.709 1.777,4.815 3.42,6.358 1.633,1.535 3.609,2.301 5.893,2.301 1.761,0 3.253,-0.46 4.45,-1.389 1.206,-0.924 2.039,-2.269 2.523,-4.038 0.476,-1.773 0.722,-5.346 0.722,-10.733 v -19.772 h 11.209 v 29.835 c 0,5.2 -1.325,9.119 -3.935,11.78 -3.133,3.126 -6.917,4.697 -11.399,4.697 m 56.243,16.257 h 11.32 v -62.569 h -11.32 v 4.775 c -2.213,-2.106 -4.442,-3.625 -6.656,-4.541 -2.221,-0.936 -4.624,-1.384 -7.226,-1.384 -5.822,0 -10.876,2.257 -15.128,6.778 -4.252,4.522 -6.37,10.142 -6.37,16.857 0,6.973 2.055,12.681 6.163,17.139 4.118,4.446 9.123,6.667 15.002,6.667 2.713,0 5.251,-0.503 7.631,-1.534 2.372,-1.004 4.57,-2.555 6.584,-4.601 z M 88.474,-9.293 c -3.515,0 -6.426,-1.241 -8.742,-3.716 -2.308,-2.475 -3.466,-5.653 -3.466,-9.516 0,-3.899 1.173,-7.127 3.537,-9.638 2.348,-2.507 5.252,-3.768 8.703,-3.768 3.546,0 6.489,1.242 8.845,3.717 2.34,2.471 3.514,5.715 3.514,9.717 0,3.938 -1.174,7.108 -3.514,9.551 -2.356,2.427 -5.316,3.653 -8.877,3.653"
             style="fill:#ffffff;fill-opacity:1;fill-rule:evenodd;stroke:none"
             id="path4798-8" />
        </g>
        <path
           id="path4802-8"
           style="fill:#ffffff;fill-opacity:1;fill-rule:nonzero;stroke:none;stroke-width:0.35277778"
           d="m -84.799212,302.18521 -3.559528,2.85856 c -0.210255,0.17074 -0.383469,0.52458 -0.383469,0.79622 v 7.28874 c 0,0.36795 -0.341489,0.67451 -0.764117,0.67451 h -2.882194 c -0.419806,0 -0.764117,-0.30656 -0.764117,-0.67451 v -7.28874 c 0,-0.27164 -0.167922,-0.62548 -0.383469,-0.79622 l -3.56235,-2.85856 c -0.207434,-0.16792 -0.249414,-0.48683 -0.103717,-0.70944 l 0.511881,-0.7246 c 0.156986,-0.22402 0.46743,-0.28434 0.697089,-0.14429 0,0 2.012244,1.25519 2.462741,1.53917 0.45332,0.27693 1.533525,0.69956 2.585861,0.69956 1.046339,0 2.126545,-0.42263 2.583039,-0.69956 0.450497,-0.28398 2.462389,-1.53917 2.462389,-1.53917 0.226836,-0.14005 0.542925,-0.0797 0.696736,0.14429 l 0.506589,0.7246 c 0.148519,0.22261 0.106539,0.54152 -0.103364,0.70944 m -6.030736,-3.86891 c 1.186744,0 2.151944,0.87877 2.151944,1.9632 0,1.08409 -0.9652,1.95616 -2.151944,1.95616 -1.186744,0 -2.151944,-0.87207 -2.151944,-1.95616 0,-1.08443 0.9652,-1.9632 2.151944,-1.9632 m 14.722827,-4.36845 c 0.201437,-0.17357 0.24377,-0.49989 0.09807,-0.72496 l -1.016,-1.49437 c -0.156634,-0.22225 -0.45332,-0.26846 -0.657578,-0.0977 l -4.866569,3.91231 c -0.207081,0.16757 -0.599017,0.30621 -0.873125,0.30621 h -4.564592 c -2.521303,0.0632 -2.784122,1.71415 -2.784122,1.71415 -0.90417,-2.06552 -2.798586,-1.71415 -2.798586,-1.71415 h -4.424539 c -0.268817,0 -0.657578,-0.13582 -0.870303,-0.30092 l -4.620335,-3.62973 c -0.21554,-0.1651 -0.54574,-0.14958 -0.74153,0.0392 l -1.23437,1.15041 c -0.19826,0.1845 -0.19826,0.48683 0,0.66604 l 5.694888,5.22182 c 0.201436,0.18203 0.361245,0.55139 0.364067,0.82162 l 0.07267,13.66943 c 0,0.2727 0.221192,0.4893 0.492478,0.4893 h 14.694958 c 0.268464,0 0.487186,-0.2166 0.487186,-0.4893 v -4.07493 c 0,-0.27411 0.220839,-0.48966 0.494947,-0.48578 l 2.325864,0.0353 c 0.268464,0.006 0.44203,-0.20567 0.388761,-0.46884 l -1.919817,-8.56474 c -0.05574,-0.26035 0.05891,-0.62407 0.263173,-0.79763 z" />
        <g
           style="fill:#ffffff"
           id="g4804"
           transform="matrix(0.35277777,0,0,-0.35277777,-95.285214,295.16789)">
          <path
             d="m 0,0 c 4.324,0 7.814,3.201 7.814,7.147 0,3.947 -3.49,7.164 -7.814,7.164 -4.323,0 -7.83,-3.217 -7.83,-7.164 C -7.83,3.201 -4.323,0 0,0"
             style="fill:#ffffff;fill-opacity:1;fill-rule:nonzero;stroke:none"
             id="path4806" />
        </g>
        <g
           style="fill:#ffffff"
           id="g4808"
           transform="matrix(0.35277777,0,0,-0.35277777,-86.349494,295.16789)">
          <path
             d="m 0,0 c 4.331,0 7.837,3.201 7.837,7.147 0,3.947 -3.506,7.164 -7.837,7.164 -4.324,0 -7.822,-3.217 -7.822,-7.164 C -7.822,3.201 -4.324,0 0,0"
             style="fill:#ffffff;fill-opacity:1;fill-rule:nonzero;stroke:none"
             id="path4810" />
        </g>
      </g>
    </g>
  </g>
</svg>
