<?xml version="1.0" encoding="utf-8"?>
<!-- Generator: Adobe Illustrator 18.1.1, SVG Export Plug-In . SVG Version: 6.00 Build 0)  -->
<svg version="1.1" id="Layer_1" xmlns="http://www.w3.org/2000/svg" xmlns:xlink="http://www.w3.org/1999/xlink" x="0px" y="0px"
	 viewBox="0 0 301.1 130" enable-background="new 0 0 301.1 130" xml:space="preserve">
<path fill="#FFFFFF" d="M73.4,99.4l-20.3,0c0,0-4.4,0.2-4.5,4.3c-0.1,4.7,4.5,4.9,4.5,4.9h21.1c18.1-0.8,33.6-14.3,35.1-34.9
	c1.5-20.6-16.4-31.1-16.4-31.1c-1.5-19.3-19.6-19.7-19.6-19.7s-25.4,0-32.3,0s-6.4,4.5-6.4,4.5l0,51.8c0,0-0.2,4,4.6,4s5-3.9,5-3.9
	l-0.1-46.4c0-0.8,0.7-0.8,0.7-0.8l29,0c5.5,0.1,7.5,5.2,7.5,5.2c-2.8-1.2-7.9-1.3-7.9-1.3H54c-5.4,0-5,3.7-5,3.7l-0.1,46.3H38.3
	c0,0-3.8,0.7-3.8,4.7c0.1,4.1,4,4.6,4,4.6h34.7C84,94.7,92.1,86.6,93,75.8c0.9-10.8-8.3-16.1-8.3-16.1c4.3-2.7,5.5-6.4,5.5-6.4
	c14.4,9.4,9.7,29.7,1.5,37.9C83.5,99.5,73.4,99.4,73.4,99.4z M58.9,45.7h15c4.2,0,8.1,1.9,8.1,1.9c-0.1,4.1-7.9,6.8-7.9,6.8H58.9
	V45.7z M73.3,86.1H59V63.7h13.6c0,0,10.3,2.4,10.3,11.1C82.9,83.5,75.4,85.9,73.3,86.1z M149.7,67.3c0,0,8.2-1.5,8.6-8.8
	c0.4-7.2-8.7-6.7-8.7-6.7h-21.6l-7.3,32.1h22c0,0,9,0.4,12.6-7.6C158.7,68.3,149.7,67.3,149.7,67.3z M142.6,74.1
	c-0.9,4-7.6,3.2-7.6,3.2l1.1-6.4C136.2,70.8,143.5,70,142.6,74.1z M144.9,61.6c-0.8,3.8-6.9,3-6.9,3l0.9-6
	C138.9,58.7,145.7,57.9,144.9,61.6z M183.8,66c0.1-4.5-8-5-8-5h-6c-9.3,0.2-10.9,7.4-10.9,7.4h9.2c0.3-1.3,1.5-2.7,3.3-2.6
	c1.8,0.1,2,0.8,1.9,1.4c-0.1,0.6-0.6,3.2-0.6,3.2c-6.2-0.2-10.9,0.9-13.2,2.2c-2.3,1.4-7.8,8.3-1.5,11.4c6.2,3.1,11.4-1.5,11.4-1.5
	h0.5l-0.2,1.5h10.5c0,0,3.2-14.4,3.4-15.5C183.7,67.2,183.8,66,183.8,66z M171.6,76.6c0,0-0.5,2.9-4.3,2.8c-3.9-0.1-1.5-4.5,0.8-4.9
	c2.3-0.4,3.5-0.2,3.5-0.2V76.6z M213.5,68.3l-3.2,15.5l-11.5,0l2.9-13.4c0.2-1,0.7-2.8-1.5-2.8c-3-0.1-3,1.8-3,1.8L194,83.8l-11.2,0
	l4.7-22.2l11.2,0.1l-0.5,3.4c0,0,2.6-4.3,9.9-4.1C215.6,61.2,213.5,68.3,213.5,68.3z M236.6,51.8l-2.8,11.8c0,0-1.8-2.7-6.6-2.6
	c-4.8,0.1-10.2,2.6-12.1,9.7c-1.9,7-2,14.1,6.7,14.2c0,0,4.4,0.5,8.4-3.2l-0.3,2.3h11l7-32H236.6z M232.1,69.9c0,0-0.7,3.8-1,5.2
	c-0.3,1.4-0.8,3.7-3.5,3.7c-2.7,0-2.1-2.9-2.1-2.9s0.2-2.6,0.7-4.2c0.5-1.6,1-4.6,3.9-4.5C233.1,67.2,232.1,69.9,232.1,69.9z
	 M272.6,75c1.2-4.6,2.6-13.6-9.2-14c-11.8-0.4-16.8,6.4-18,10.6c-1.1,4.2-2.6,12.9,10.8,13.2c13.4,0.3,15.5-7.7,15.5-7.7h-10.1
	c-0.2,1.4-1.4,2.3-3.6,2.3c-2.2,0-2.8-1.3-2.8-1.9s0.2-2.6,0.2-2.6L272.6,75z M260.9,66.3c3.1,0,2.8,2,2.8,2l-0.3,1.8h-6.2
	C257.4,69,257.7,66.3,260.9,66.3z M299.6,76.4c-0.6,6-6.5,8.6-15.7,8.5c0,0-11.9,0.9-10.4-8h10.4V78c0,0-0.5,2.1,2.3,2
	c2.3,0,2.8-1.4,2.8-2c0-0.5,0.4-1.7-3.1-2.3c-3.8-0.6-11-0.7-10.4-6.3c0.6-5.6,7.3-8.5,12.2-8.5c4.9,0,14-0.4,13.5,7.5l-10.2-0.1
	c0,0,1.3-2.8-2-2.8c-3.3,0-4.7,3.2-0.3,3.8S300.2,70.4,299.6,76.4z M7.1,40.7l-7.1,1c0,0,8.7-18.3,29.3-28.6
	C13.3,25,7.1,40.7,7.1,40.7z M29.3,13.1C39.1,5.8,52.5,0,70.5,0c40,0,59.5,35.9,59.5,35.9l-10.7,3.3c0,0-9.9-20.2-32.4-28.6
	C61.8,2.9,43,6.3,29.3,13.1z M114.7,104.7h5.8c0,0-5.1,10.9-22.7,16.9C109.6,114.2,114.7,104.7,114.7,104.7z M71.9,125.4
	c10.7,0,19.2-1.6,25.9-3.9c-7.4,4.6-17.4,8.4-30.5,8.4C26.4,130,5.5,92.4,5.5,68.3c0-24,10.2-36.7,10.2-36.7s1.2-0.2,6.2,0
	c-8.5,11-12.6,38.5-1.4,60.2C30.3,111.1,50.9,125.4,71.9,125.4z"/>
</svg>
