<?xml version="1.0" encoding="UTF-8" standalone="no"?>
<svg
   xmlns:dc="http://purl.org/dc/elements/1.1/"
   xmlns:cc="http://creativecommons.org/ns#"
   xmlns:rdf="http://www.w3.org/1999/02/22-rdf-syntax-ns#"
   xmlns:svg="http://www.w3.org/2000/svg"
   xmlns="http://www.w3.org/2000/svg"
   id="svg6186"
   version="1.1"
   viewBox="0 0 26.08423 5.2917299"
   height="5.2917299mm"
   width="26.08423mm">
  <defs
     id="defs6180" />
  <metadata
     id="metadata6183">
    <rdf:RDF>
      <cc:Work
         rdf:about="">
        <dc:format>image/svg+xml</dc:format>
        <dc:type
           rdf:resource="http://purl.org/dc/dcmitype/StillImage" />
        <dc:title></dc:title>
      </cc:Work>
    </rdf:RDF>
  </metadata>
  <g
     transform="translate(171.3029,-156.02901)"
     id="layer1">
    <g
       style="fill:#ffffff"
       transform="translate(39.873253,1.8728156)"
       id="layer1-29">
      <path
         id="path4953"
         d="m -211.17615,154.15625 v 5.22449 h 2.22209 c 1.95394,-1.8e-4 2.54287,-2.24788 0.73174,-3.17603 l 0.25838,-0.3788 c 0.54677,-0.80102 0.17088,-1.66966 -0.90847,-1.66966 z m 4.47519,0 v 5.22449 h 2.22104 c 1.95413,-1.8e-4 2.54381,-2.24788 0.73174,-3.17603 l 0.25891,-0.3788 c 0.54676,-0.80102 0.17022,-1.66966 -0.90952,-1.66966 z m 4.6364,0 -0.93534,5.1e-4 1.73064,5.22035 1.26918,0.001 1.6123,-5.22192 h -0.8356 l -1.19579,3.96617 -1.00097,-3.283 c -0.18873,-0.59157 -0.28375,-0.68316 -0.64441,-0.68316 z m 4.6762,5.1e-4 -1.61851,5.22191 h 0.82475 l 0.34727,-1.12758 h 1.92393 l 0.3488,1.12758 h 1.42989 l -1.60507,-4.68913 c -0.14878,-0.43607 -0.24937,-0.53226 -0.64027,-0.53226 z m -12.54342,0.6811 h 0.67903 c 0.32688,0 0.61082,0.26802 0.61082,0.58705 0,0.11425 -0.0232,0.21648 -0.13488,0.37982 l -0.44131,0.64957 c 0.46016,0.11032 0.76842,0.45623 0.76842,1.10381 1.9e-4,0.78572 -0.47749,1.12086 -1.10639,1.12086 h -0.37569 z m 4.47415,0 h 0.67851 c 0.3278,0 0.61133,0.26802 0.61133,0.58705 0,0.11425 -0.0232,0.21648 -0.13487,0.37982 l -0.44132,0.64957 c 0.46092,0.11032 0.76843,0.45623 0.76843,1.10381 1.9e-4,0.78572 -0.47678,1.12086 -1.10588,1.12086 h -0.37621 z m 8.57572,0.26717 0.73276,2.38228 h -1.45418 z m 10.9585,0.26044 -0.56689,0.34985 v 0.69608 h -0.5364 v 0.43822 h 0.5364 v 1.8738 c 0,0.14224 0.0224,0.25998 0.0672,0.35293 0.045,0.0933 0.10736,0.16751 0.18706,0.22221 0.0797,0.0547 0.17413,0.0935 0.28371,0.11576 0.10958,0.0226 0.22994,0.0336 0.36174,0.0336 0.154,0 0.3036,-0.0158 0.44958,-0.046 v -0.43459 c -0.0474,0.0164 -0.0969,0.0271 -0.14935,0.0331 -0.0525,0.006 -0.1042,0.01 -0.15554,0.01 -0.0984,0 -0.17932,-0.0139 -0.24185,-0.0424 -0.0627,-0.0284 -0.11152,-0.0685 -0.14624,-0.12041 -0.0351,-0.0517 -0.0588,-0.11286 -0.0713,-0.18397 -0.0121,-0.0708 -0.0181,-0.14806 -0.0181,-0.23151 v -1.5813 h 0.83147 v -0.001 -0.43822 h -0.83147 z m -5.35523,0.97928 c -0.1191,0 -0.22752,0.0165 -0.32608,0.0501 -0.0986,0.0336 -0.18707,0.0812 -0.2651,0.14314 -0.078,0.062 -0.14715,0.13582 -0.20671,0.22169 -0.0596,0.0864 -0.11087,0.18255 -0.15399,0.28784 h -0.0119 v -0.63562 h -0.56689 v 2.96571 h 0.56689 v -1.25936 c 0,-0.073 0.007,-0.15392 0.0196,-0.24184 0.0134,-0.0883 0.0348,-0.17708 0.0636,-0.26613 0.0289,-0.0894 0.0639,-0.17617 0.10594,-0.26149 0.042,-0.0849 0.0929,-0.16115 0.15245,-0.22686 0.0596,-0.0661 0.1272,-0.11874 0.20205,-0.15813 0.0751,-0.0396 0.15874,-0.0594 0.25115,-0.0594 0.0821,0 0.14823,0.0122 0.19844,0.0367 0.0504,0.0243 0.0899,0.0579 0.11885,0.10128 0.0286,0.0437 0.0492,0.0958 0.0615,0.15555 0.0121,0.0597 0.0206,0.12439 0.0248,0.19327 0.004,0.0627 0.006,0.12539 0.006,0.1881 v 0.17984 1.61798 h 0.56741 v -2.05619 c 0,-0.12974 -0.0141,-0.25325 -0.0419,-0.37104 -0.0276,-0.1178 -0.0735,-0.22064 -0.13694,-0.31006 -0.0638,-0.0894 -0.14693,-0.1607 -0.2496,-0.21446 -0.10268,-0.0536 -0.2294,-0.0806 -0.3793,-0.0806 z m 2.75177,5.2e-4 c -0.21561,0 -0.40049,0.035 -0.55449,0.10593 -0.1542,0.0711 -0.28135,0.16925 -0.38086,0.29507 -0.0997,0.12563 -0.17247,0.2746 -0.21859,0.44597 -0.0463,0.17136 -0.0698,0.3571 -0.0698,0.55759 0,0.24529 0.028,0.47219 0.0837,0.67903 0.0554,0.20665 0.14238,0.38553 0.26148,0.53692 0.11929,0.15102 0.27278,0.26867 0.46095,0.35398 0.1878,0.0849 0.41519,0.12816 0.68213,0.12816 0.12918,0 0.25496,-0.0102 0.37724,-0.0289 0.12226,-0.0194 0.24716,-0.0427 0.37466,-0.0713 v -0.44442 c -0.0947,0.0347 -0.18759,0.0608 -0.27906,0.0791 -0.0913,0.0179 -0.18739,0.0274 -0.28784,0.0274 -0.1891,0 -0.35274,-0.0383 -0.49144,-0.11524 -0.1387,-0.0773 -0.25312,-0.17864 -0.34365,-0.30334 -0.0902,-0.1247 -0.15843,-0.26701 -0.2036,-0.42736 -0.0452,-0.15998 -0.0677,-0.322 -0.0677,-0.48628 h 1.74098 v -0.14314 c 0,-0.17025 -0.0221,-0.32875 -0.0661,-0.47491 -0.0439,-0.1458 -0.11057,-0.27144 -0.19999,-0.37672 -0.0894,-0.10548 -0.20192,-0.18812 -0.33745,-0.24804 -0.13571,-0.0596 -0.29578,-0.0894 -0.48059,-0.0894 z m -0.031,0.43718 c 0.0782,0 0.15039,0.0128 0.21705,0.0382 0.0667,0.025 0.12468,0.0601 0.17412,0.10542 0.0493,0.045 0.0879,0.0999 0.11576,0.1633 0.0275,0.0638 0.0413,0.13502 0.0413,0.21342 h -1.14928 c 0,-0.0302 0.005,-0.0602 0.0139,-0.0904 0.009,-0.0299 0.0203,-0.0596 0.0326,-0.0878 0.0511,-0.11293 0.12578,-0.19812 0.22325,-0.2558 0.0974,-0.0575 0.20804,-0.0863 0.33124,-0.0863 z"
         style="fill:#ffffff;stroke-width:0.186676" />
    </g>
  </g>
</svg>
