<?xml version="1.0" encoding="UTF-8" standalone="no"?>
<svg
   xmlns:dc="http://purl.org/dc/elements/1.1/"
   xmlns:cc="http://creativecommons.org/ns#"
   xmlns:rdf="http://www.w3.org/1999/02/22-rdf-syntax-ns#"
   xmlns:svg="http://www.w3.org/2000/svg"
   xmlns="http://www.w3.org/2000/svg"
   id="svg6186"
   version="1.1"
   viewBox="0 0 26.45833 9.4490303"
   height="9.4490299mm"
   width="26.45833mm">
  <defs
     id="defs6180" />
  <metadata
     id="metadata6183">
    <rdf:RDF>
      <cc:Work
         rdf:about="">
        <dc:format>image/svg+xml</dc:format>
        <dc:type
           rdf:resource="http://purl.org/dc/dcmitype/StillImage" />
        <dc:title></dc:title>
      </cc:Work>
    </rdf:RDF>
  </metadata>
  <g
     transform="translate(-130.18539,-454.36822)"
     id="layer1">
    <g
       style="fill:#ffffff"
       transform="translate(306.17505,348.57206)"
       id="layer1-26">
      <path
         id="rect5444"
         d="m -175.98966,105.79616 v 9.44903 h 9.40672 v -9.44903 z m 9.86312,0 v 9.44903 h 16.59521 v -9.44903 z m -4.17859,0.70317 0.0144,0.0339 c -1.66208,0.58803 -3.62908,2.32243 -3.62908,4.8199 0,1.51107 0.62313,2.59403 1.07948,3.1844 h -1.08534 c -0.54736,-0.70171 -0.91364,-1.90096 -0.73897,-3.15901 0.50869,-3.65553 3.37454,-4.64479 4.35959,-4.87915 z m 0.34897,1.21424 c 2.7758,0 2.11599,3.10954 2.11599,3.10954 h -3.58807 c -0.0172,0.21768 -0.0214,0.44394 -0.0113,0.68428 0,0.48869 0.4708,1.43301 1.53718,1.43301 1.06739,0 1.58927,-0.59248 1.58927,-0.59248 l 0.22527,0.16081 c -0.13066,0.21034 -0.28053,0.39975 -0.45054,0.56709 -0.27334,0.27002 -0.59273,0.48051 -0.95642,0.63219 -0.36335,0.15034 -0.7667,0.22463 -1.2084,0.22463 -0.44168,0 -0.82763,-0.0743 -1.15564,-0.22137 -0.32802,-0.14701 -0.59605,-0.35821 -0.80473,-0.63089 -0.20801,-0.27402 -0.35324,-0.60086 -0.43558,-0.97921 -0.0814,-0.37969 -0.0935,-0.80479 -0.0372,-1.27416 0.0561,-0.46502 0.16977,-0.88659 0.34312,-1.26894 0.17401,-0.38201 0.39724,-0.71177 0.67125,-0.98378 0.27402,-0.27433 0.59306,-0.48541 0.95708,-0.63609 0.36402,-0.14996 0.76704,-0.22463 1.2084,-0.22463 z m -0.10154,0.55342 c -0.17368,0 -0.33143,0.0563 -0.46878,0.16733 -0.13867,0.11137 -0.26025,0.25412 -0.3646,0.42579 -0.1047,0.17069 -0.19148,0.356 -0.25848,0.55668 -0.067,0.19867 -0.11679,0.38935 -0.14974,0.56969 -0.009,0.0483 -0.0141,0.099 -0.0208,0.14908 h 1.84579 c 0.0126,-0.0499 0.025,-0.10041 0.0339,-0.14908 0.0326,-0.18034 0.052,-0.37102 0.0567,-0.56969 0.006,-0.20068 -0.0126,-0.38599 -0.0547,-0.55668 -0.042,-0.17133 -0.11263,-0.31442 -0.2103,-0.42579 -0.0976,-0.111 -0.23421,-0.16733 -0.40888,-0.16733 z m 13.15428,0.42645 c 0.32168,0 0.60803,0.0515 0.86138,0.15431 0.25268,0.10369 0.46666,0.24756 0.64,0.43556 0.17368,0.18668 0.30677,0.41218 0.39911,0.67386 0.0917,0.26169 0.13802,0.55019 0.13802,0.86854 0,0.31802 -0.0464,0.60815 -0.13802,0.86983 -0.0923,0.26201 -0.22669,0.48526 -0.40236,0.67061 -0.175,0.185 -0.38868,0.32863 -0.63935,0.43231 -0.25068,0.10293 -0.5371,0.15366 -0.85878,0.15366 -0.32101,0 -0.6074,-0.0508 -0.85942,-0.15105 -0.25067,-0.10067 -0.46433,-0.24531 -0.63935,-0.43231 -0.175,-0.18768 -0.30936,-0.41126 -0.40236,-0.67061 -0.0917,-0.26001 -0.13802,-0.5511 -0.13802,-0.87244 0,-0.31835 0.0464,-0.60685 0.13802,-0.86854 0.093,-0.26168 0.22736,-0.4875 0.40236,-0.67386 0.17502,-0.18767 0.38868,-0.33188 0.63935,-0.43556 0.25202,-0.10268 0.53841,-0.15431 0.85942,-0.15431 z m -8.30769,0.10092 h 1.4942 c 0.13769,0 0.27205,0.0161 0.40172,0.0495 0.12901,0.034 0.24313,0.0874 0.34247,0.16017 0.0997,0.0733 0.17833,0.16821 0.23634,0.28321 0.059,0.11705 0.0879,0.25439 0.0879,0.4154 0,0.14234 -0.028,0.26916 -0.0847,0.38218 -0.0567,0.11263 -0.13038,0.20909 -0.22071,0.28841 -0.09,0.0816 -0.19547,0.14386 -0.31382,0.18751 -0.11906,0.0454 -0.23873,0.0737 -0.35874,0.0847 v 0.0567 c 0.0284,-0.004 0.0563,-0.006 0.0847,-0.006 h 0.0964 c 0.15968,0 0.29774,0.0301 0.41473,0.0905 0.1173,0.0593 0.21494,0.13958 0.29494,0.24091 0.08,0.10105 0.13906,0.21819 0.17839,0.35353 0.0391,0.13501 0.058,0.27897 0.058,0.43231 v 6.3e-4 c 0,0.17168 -0.0314,0.3225 -0.0931,0.45184 -0.062,0.12902 -0.1444,0.23755 -0.24741,0.3249 -0.10231,0.0881 -0.22021,0.15394 -0.35288,0.19727 -0.13301,0.043 -0.27233,0.0637 -0.418,0.0637 h -1.60033 z m 3.05093,0 h 1.74618 c 0.14834,0 0.28765,0.0265 0.41798,0.0808 0.12902,0.0543 0.24223,0.12869 0.33856,0.22137 0.0964,0.093 0.17347,0.20557 0.23113,0.33725 0.0573,0.13066 0.0859,0.27124 0.0859,0.42059 0,0.24334 -0.0661,0.46007 -0.20053,0.65108 -0.13335,0.19068 -0.30749,0.33992 -0.52216,0.44859 0.0743,0.14534 0.1626,0.30397 0.26693,0.47463 0.10369,0.17001 0.21222,0.34011 0.32489,0.5098 0.11264,0.17066 0.22933,0.33548 0.34767,0.49416 0.11831,0.15867 0.23155,0.29897 0.33922,0.41798 h -1.15631 c -0.17768,-0.25469 -0.34154,-0.52116 -0.49221,-0.79951 -0.14968,-0.27835 -0.28775,-0.55824 -0.41408,-0.83859 h -0.40107 v 1.6381 h -0.91216 z m 8.56618,7.1e-4 v 2.35624 c 0,0.12667 0.005,0.25917 0.0176,0.39585 0.0113,0.13601 0.0383,0.26099 0.0827,0.37566 0.0444,0.11403 0.11276,0.20887 0.20638,0.28387 0.091,0.0747 0.22202,0.11201 0.38869,0.11201 0.15168,0 0.27388,-0.0329 0.36656,-0.0989 0.0924,-0.065 0.16326,-0.14962 0.2116,-0.25261 0.0484,-0.10268 0.0787,-0.21616 0.0944,-0.34183 0.015,-0.12498 0.0228,-0.25008 0.0228,-0.37241 v -2.4578 h 0.8451 v 2.57955 c 0,1.05172 -0.52119,1.57756 -1.56323,1.57756 -0.24868,0 -0.47475,-0.0335 -0.67842,-0.10092 -0.20368,-0.0673 -0.37848,-0.16753 -0.52281,-0.2982 -0.14401,-0.13134 -0.25536,-0.29483 -0.33336,-0.49351 -0.0774,-0.19801 -0.11591,-0.42559 -0.11591,-0.68493 v -2.491 z m -3.30942,0.53258 c -0.18834,0 -0.34632,0.0495 -0.47333,0.14649 -0.12834,0.097 -0.23156,0.22112 -0.31055,0.37046 -0.08,0.14834 -0.1366,0.3107 -0.16994,0.48505 -0.034,0.17334 -0.0495,0.33912 -0.0495,0.49612 0,0.15699 0.0159,0.32177 0.0495,0.49612 0.0334,0.17433 0.09,0.33509 0.16994,0.48244 0.0786,0.148 0.18221,0.27019 0.31055,0.36785 0.12701,0.0974 0.28499,0.14651 0.47333,0.14651 0.18834,0 0.34631,-0.0491 0.47399,-0.14651 0.12767,-0.0976 0.23023,-0.21951 0.30991,-0.36785 0.0794,-0.14735 0.13529,-0.30811 0.16863,-0.48244 0.0336,-0.17435 0.0501,-0.33913 0.0501,-0.49612 0,-0.15734 -0.0165,-0.32311 -0.0501,-0.49612 -0.0334,-0.17435 -0.0893,-0.33671 -0.16863,-0.48505 -0.0794,-0.14934 -0.18224,-0.27346 -0.30991,-0.37046 -0.12768,-0.097 -0.28565,-0.14649 -0.47399,-0.14649 z m -4.34462,0.0997 v 1.21816 h 0.36202 c 0.10028,0 0.18579,-0.0184 0.25846,-0.0541 0.073,-0.0346 0.13142,-0.0835 0.1771,-0.14519 0.0464,-0.0624 0.0806,-0.13414 0.10091,-0.2168 0.021,-0.0816 0.0306,-0.16683 0.0306,-0.25717 0,-0.097 -0.0178,-0.18035 -0.0528,-0.25002 -0.035,-0.0687 -0.0819,-0.12561 -0.14193,-0.16798 -0.06,-0.043 -0.12774,-0.0753 -0.20574,-0.0957 -0.0774,-0.021 -0.15981,-0.0312 -0.24481,-0.0312 z m -3.11733,0.002 v 1.02023 c 0.035,0.0113 0.0685,0.0157 0.10092,0.0113 0.0324,-0.004 0.0653,-0.006 0.10092,-0.006 0.18134,0 0.32186,-0.0547 0.42319,-0.16537 0.10029,-0.11037 0.15105,-0.25899 0.15105,-0.44534 h 7.1e-4 c 0,-0.16567 -0.0506,-0.27573 -0.1517,-0.3314 -0.1013,-0.0559 -0.22324,-0.0833 -0.36525,-0.0833 z m 0.21225,1.62051 c -0.0353,0 -0.0711,7.4e-4 -0.10609,0.002 -0.0356,0.003 -0.0712,0.004 -0.10608,0.009 v 1.13287 c 0.0496,0.008 0.1013,0.0137 0.15431,0.0175 0.0533,0.004 0.10432,0.005 0.1543,0.005 0.0777,0 0.15419,-0.009 0.22853,-0.0254 0.075,-0.0166 0.14155,-0.0462 0.19988,-0.0898 0.059,-0.0433 0.10457,-0.098 0.14063,-0.16603 0.0353,-0.0661 0.0533,-0.15029 0.0534,-0.25066 -6e-5,-0.12334 -0.0171,-0.22674 -0.0508,-0.30927 -0.034,-0.0816 -0.0815,-0.14669 -0.14389,-0.19335 -0.062,-0.047 -0.13792,-0.0803 -0.22592,-0.10092 -0.089,-0.021 -0.18785,-0.0312 -0.2982,-0.0312 z"
         style="fill:#ffffff;stroke-width:0.3333497" />
    </g>
  </g>
</svg>
