<?xml version="1.0" encoding="UTF-8" standalone="no"?>
<svg
   xmlns:dc="http://purl.org/dc/elements/1.1/"
   xmlns:cc="http://creativecommons.org/ns#"
   xmlns:rdf="http://www.w3.org/1999/02/22-rdf-syntax-ns#"
   xmlns:svg="http://www.w3.org/2000/svg"
   xmlns="http://www.w3.org/2000/svg"
   id="svg6186"
   version="1.1"
   viewBox="0 0 26.458334 20.531007"
   height="20.531006mm"
   width="26.458334mm">
  <defs
     id="defs6180" />
  <metadata
     id="metadata6183">
    <rdf:RDF>
      <cc:Work
         rdf:about="">
        <dc:format>image/svg+xml</dc:format>
        <dc:type
           rdf:resource="http://purl.org/dc/dcmitype/StillImage" />
        <dc:title></dc:title>
      </cc:Work>
    </rdf:RDF>
  </metadata>
  <g
     transform="translate(-182.70725,-454.55439)"
     id="layer1">
    <g
       style="fill:#ffffff"
       transform="translate(382.91754,350.44333)"
       id="layer1-99">
      <g
         style="fill:#ffffff"
         transform="matrix(0.85838347,0,0,0.85838347,-258.99909,17.034594)"
         id="g7455">
        <g
           style="fill:#ffffff"
           id="g6595"
           transform="matrix(0.26458333,0,0,0.26458333,-20.862123,32.412483)">
          <path
             style="fill:#ffffff"
             d="m 358.9,351.1 v -6 c 0,-2.3 -1.4,-3.8 -3.8,-3.8 -1.2,0 -2.5,0.4 -3.4,1.7 -0.7,-1.1 -1.7,-1.7 -3.2,-1.7 -1,0 -2,0.3 -2.8,1.4 v -1.2 h -2.1 v 9.6 h 2.1 v -5.3 c 0,-1.7 0.9,-2.5 2.3,-2.5 1.4,0 2.1,0.9 2.1,2.5 v 5.3 h 2.1 v -5.3 c 0,-1.7 1,-2.5 2.3,-2.5 1.4,0 2.1,0.9 2.1,2.5 v 5.3 z m 31.1,-9.6 h -3.4 v -2.9 h -2.1 v 2.9 h -1.9 v 1.9 h 1.9 v 4.4 c 0,2.2 0.9,3.5 3.3,3.5 0.9,0 1.9,-0.3 2.6,-0.7 l -0.6,-1.8 c -0.6,0.4 -1.3,0.5 -1.8,0.5 -1,0 -1.4,-0.6 -1.4,-1.6 v -4.3 h 3.4 z m 17.8,-0.2 c -1.2,0 -2,0.6 -2.5,1.4 v -1.2 h -2.1 v 9.6 h 2.1 v -5.4 c 0,-1.6 0.7,-2.5 2,-2.5 0.4,0 0.9,0.1 1.3,0.2 l 0.6,-2 c -0.4,-0.1 -1,-0.1 -1.4,-0.1 z m -26.9,1 c -1,-0.7 -2.4,-1 -3.9,-1 -2.4,0 -4,1.2 -4,3.1 0,1.6 1.2,2.5 3.3,2.8 l 1,0.1 c 1.1,0.2 1.7,0.5 1.7,1 0,0.7 -0.8,1.2 -2.2,1.2 -1.4,0 -2.5,-0.5 -3.2,-1 l -1,1.6 c 1.1,0.8 2.6,1.2 4.1,1.2 2.8,0 4.4,-1.3 4.4,-3.1 0,-1.7 -1.3,-2.6 -3.3,-2.9 l -1,-0.1 c -0.9,-0.1 -1.6,-0.3 -1.6,-0.9 0,-0.7 0.7,-1.1 1.8,-1.1 1.2,0 2.4,0.5 3,0.8 z m 55.8,-1 c -1.2,0 -2,0.6 -2.5,1.4 v -1.2 h -2.1 v 9.6 h 2.1 v -5.4 c 0,-1.6 0.7,-2.5 2,-2.5 0.4,0 0.9,0.1 1.3,0.2 l 0.6,-2 c -0.4,-0.1 -1,-0.1 -1.4,-0.1 z m -26.8,5 c 0,2.9 2,5 5.1,5 1.4,0 2.4,-0.3 3.4,-1.1 l -1,-1.7 c -0.8,0.6 -1.6,0.9 -2.5,0.9 -1.7,0 -2.9,-1.2 -2.9,-3.1 0,-1.8 1.2,-3 2.9,-3.1 0.9,0 1.7,0.3 2.5,0.9 l 1,-1.7 c -1,-0.8 -2,-1.1 -3.4,-1.1 -3.1,0 -5.1,2.1 -5.1,5 z m 19.4,0 v -4.8 h -2.1 v 1.2 c -0.7,-0.9 -1.7,-1.4 -3,-1.4 -2.7,0 -4.8,2.1 -4.8,5 0,2.9 2.1,5 4.8,5 1.4,0 2.4,-0.5 3,-1.4 v 1.2 h 2.1 z m -7.7,0 c 0,-1.7 1.1,-3.1 2.9,-3.1 1.7,0 2.9,1.3 2.9,3.1 0,1.7 -1.2,3.1 -2.9,3.1 -1.8,-0.1 -2.9,-1.4 -2.9,-3.1 z m -25.1,-5 c -2.8,0 -4.8,2 -4.8,5 0,3 2,5 4.9,5 1.4,0 2.8,-0.4 3.9,-1.3 l -1,-1.5 c -0.8,0.6 -1.8,1 -2.8,1 -1.3,0 -2.6,-0.6 -2.9,-2.3 h 7.1 c 0,-0.3 0,-0.5 0,-0.8 0.1,-3.1 -1.7,-5.1 -4.4,-5.1 z m 0,1.8 c 1.3,0 2.2,0.8 2.4,2.3 h -5 c 0.2,-1.3 1.1,-2.3 2.6,-2.3 z m 52.1,3.2 v -8.6 h -2.1 v 5 c -0.7,-0.9 -1.7,-1.4 -3,-1.4 -2.7,0 -4.8,2.1 -4.8,5 0,2.9 2.1,5 4.8,5 1.4,0 2.4,-0.5 3,-1.4 v 1.2 h 2.1 z m -7.7,0 c 0,-1.7 1.1,-3.1 2.9,-3.1 1.7,0 2.9,1.3 2.9,3.1 0,1.7 -1.2,3.1 -2.9,3.1 -1.8,-0.1 -2.9,-1.4 -2.9,-3.1 z m -70.2,0 v -4.8 h -2.1 v 1.2 c -0.7,-0.9 -1.7,-1.4 -3,-1.4 -2.7,0 -4.8,2.1 -4.8,5 0,2.9 2.1,5 4.8,5 1.4,0 2.4,-0.5 3,-1.4 v 1.2 h 2.1 z m -7.8,0 c 0,-1.7 1.1,-3.1 2.9,-3.1 1.7,0 2.9,1.3 2.9,3.1 0,1.7 -1.2,3.1 -2.9,3.1 -1.8,-0.1 -2.9,-1.4 -2.9,-3.1 z"
             id="XMLID_1775_" />
        </g>
        <path
           style="fill:#ffffff;stroke-width:0.99999994"
           d="m 294.85156,383.4043 c -19.9,0 -36,16.10003 -36,36 0,19.9 16.1,36 36,36 8.05249,0 15.45668,-2.67193 21.42969,-7.1211 -8.39097,-6.69667 -13.83008,-17.18773 -13.83008,-28.88086 0,-11.6967 5.44479,-22.09264 13.83008,-28.8789 -5.97301,-4.44902 -13.3772,-7.11914 -21.42969,-7.11914 z m 44.49805,0 c -8.00572,0 -15.37129,2.63847 -21.32617,7.04101 8.43968,6.78441 13.92578,17.21563 13.92578,28.95703 0,11.73519 -5.39028,22.16865 -13.93164,28.95508 5.95587,4.40522 13.32377,7.04688 21.33203,7.04688 19.89997,0 36,-16.1 36,-36 0,-19.8 -16.10003,-36 -36,-36 z m -22.15039,9.19336 c -7.66863,6.42784 -12.74805,15.94935 -12.74805,26.80468 0,10.8584 5.085,20.47364 12.74805,26.81055 7.75494,-6.42546 12.75,-15.94554 12.75,-26.81055 0,-10.85522 -5.08121,-20.3768 -12.75,-26.80468 z"
           id="rect6597"
           transform="scale(0.26458333)" />
      </g>
    </g>
  </g>
</svg>
