<?xml version="1.0" encoding="utf-8"?>
<!-- Generator: Adobe Illustrator 23.0.3, SVG Export Plug-In . SVG Version: 6.00 Build 0)  -->
<svg version="1.1" id="Layer_1" xmlns="http://www.w3.org/2000/svg" xmlns:xlink="http://www.w3.org/1999/xlink" x="0px" y="0px"
	 viewBox="0 0 104.1 34" style="enable-background:new 0 0 104.1 34;" xml:space="preserve">
<style type="text/css">
	.st0{fill:#FFFFFF;}
</style>
<path class="st0" d="M19.8,0C10.4,0,1.6,7.6,0.2,17c-1.4,9.4,5.1,17,14.4,17s18.1-7.6,19.6-17C35.6,7.6,29.1,0,19.8,0z M25.7,17
	c-0.7,4.7-5.1,8.5-9.8,8.5c-4.7,0-7.9-3.8-7.2-8.5c0.7-4.7,5.1-8.5,9.8-8.5C23.2,8.5,26.4,12.3,25.7,17z M69.1,24.7
	c-3.6,5.5-9.9,9.3-16.6,9.3c-9.4,0-15.9-7.6-14.4-17S48.3,0,57.6,0C63,0,67.5,2.5,70,6.5c0.8,1.4,0.9,1.8,0.9,1.8l-6.1,3.5
	c0,0-1.5,0.9-2.7-0.5c-1.4-1.7-3.3-2.8-5.8-2.8c-4.7,0-9.1,3.8-9.8,8.5c-0.7,4.7,2.5,8.5,7.2,8.5c2.9,0,5.6-1.4,7.5-3.6
	c1.2-1.1,2.5-0.4,2.5-0.4L69.1,24.7z M95.2,33.9l-0.6-4.8l-6.9-6.9c-0.3-0.3-0.1-0.9,0.4-0.9h5.5L91.9,7.9l-14.2,26h-8.9L87.2,0.1
	h3.7h5.3h3.7l4.3,33.8H95.2z"/>
</svg>
