<?xml version="1.0" encoding="UTF-8" standalone="no"?>
<svg
   xmlns:dc="http://purl.org/dc/elements/1.1/"
   xmlns:cc="http://creativecommons.org/ns#"
   xmlns:rdf="http://www.w3.org/1999/02/22-rdf-syntax-ns#"
   xmlns:svg="http://www.w3.org/2000/svg"
   xmlns="http://www.w3.org/2000/svg"
   id="svg6186"
   version="1.1"
   viewBox="0 0 26.45833 10.17596"
   height="10.17596mm"
   width="26.45833mm">
  <defs
     id="defs6180" />
  <metadata
     id="metadata6183">
    <rdf:RDF>
      <cc:Work
         rdf:about="">
        <dc:format>image/svg+xml</dc:format>
        <dc:type
           rdf:resource="http://purl.org/dc/dcmitype/StillImage" />
        <dc:title></dc:title>
      </cc:Work>
    </rdf:RDF>
  </metadata>
  <g
     transform="translate(-139.80575,-449.54133)"
     id="layer1">
    <g
       style="fill:#ffffff"
       transform="translate(323.38506,312.25002)"
       id="layer1-91">
      <path
         id="path5680"
         d="m -172.58117,137.29131 c -0.51263,0 -1.02536,0.0442 -1.53691,0.13252 -0.5112,0.0883 -0.88022,0.16465 -1.10711,0.22927 v 1.75146 h 0.19702 c 0.17483,-0.0732 0.46351,-0.17772 0.86522,-0.31341 0.40169,-0.13606 0.78014,-0.20334 1.13375,-0.20334 0.58944,0 1.03443,0.0763 1.33777,0.22928 0.30227,0.15292 0.45364,0.42952 0.45364,0.83015 v 0.0393 c -0.63218,0.0388 -1.24336,0.0991 -1.83209,0.1809 -0.58909,0.0818 -1.08306,0.21982 -1.4808,0.41367 -0.40171,0.19385 -0.71251,0.45803 -0.93113,0.79439 -0.21899,0.33602 -0.32813,0.76936 -0.32813,1.29922 0,0.66341 0.21465,1.20824 0.64436,1.63507 0.42969,0.42611 0.96351,0.63944 1.6,0.63944 0.27103,0 0.51913,-0.0244 0.74602,-0.0743 0.22651,-0.0492 0.44589,-0.12553 0.65626,-0.22927 0.15149,-0.0779 0.31325,-0.18304 0.48449,-0.31622 0.17087,-0.1339 0.31421,-0.24808 0.4298,-0.34286 v 0.76846 h 2.13078 v -4.93745 c 0,-0.87018 -0.27087,-1.50844 -0.81473,-1.91552 -0.54351,-0.40709 -1.42587,-0.6107 -2.64821,-0.6107 z m 7.13903,0.006 c -0.92834,0 -1.66037,0.23174 -2.19597,0.69483 -0.53561,0.46309 -0.80353,1.04377 -0.80353,1.74164 0,0.54279 0.1289,0.99621 0.38704,1.36022 0.25884,0.36401 0.65426,0.63296 1.18843,0.80491 0.19564,0.0646 0.41298,0.11918 0.65207,0.16477 0.23836,0.0449 0.42828,0.0874 0.56792,0.12621 0.29293,0.0732 0.49221,0.14958 0.59668,0.22927 0.10488,0.08 0.15705,0.20831 0.15705,0.38493 0,0.19852 -0.0891,0.34784 -0.26713,0.44943 -0.17806,0.10088 -0.45162,0.15215 -0.82174,0.15215 -0.28251,0 -0.54774,-0.0358 -0.7958,-0.10727 -0.2477,-0.0707 -0.46976,-0.15577 -0.66468,-0.25521 -0.22725,-0.11129 -0.40241,-0.21649 -0.52656,-0.31342 -0.12347,-0.0969 -0.2327,-0.18633 -0.32673,-0.26853 h -0.17318 v 1.91342 c 0.25847,0.14646 0.59999,0.27903 1.02647,0.39965 0.42575,0.12062 0.90026,0.18159 1.42402,0.18159 0.94521,0 1.6903,-0.23009 2.23524,-0.68852 0.54386,-0.45842 0.81683,-1.06289 0.81683,-1.81245 0,-0.51263 -0.11885,-0.94026 -0.35548,-1.28309 -0.23729,-0.34248 -0.60433,-0.5933 -1.10009,-0.75233 -0.22292,-0.0693 -0.44528,-0.1262 -0.66678,-0.17178 -0.22185,-0.0452 -0.42917,-0.0914 -0.62122,-0.13883 -0.34858,-0.0905 -0.57066,-0.18088 -0.66468,-0.27134 -0.094,-0.0905 -0.14093,-0.22243 -0.14093,-0.39474 0,-0.18955 0.10379,-0.33623 0.31131,-0.43962 0.20749,-0.10339 0.46264,-0.15495 0.76635,-0.15495 0.36652,0 0.7285,0.0747 1.08676,0.22296 0.35756,0.14862 0.67604,0.34151 0.95497,0.57844 h 0.16267 v -1.83559 c -0.22652,-0.12457 -0.54271,-0.24176 -0.94585,-0.35197 -0.40313,-0.10985 -0.8237,-0.16477 -1.26346,-0.16477 z m 5.84543,0 c -0.92833,0 -1.66036,0.23174 -2.19669,0.69483 -0.53489,0.46309 -0.8035,1.04377 -0.8035,1.74164 0,0.54279 0.12957,0.99621 0.38773,1.36022 0.2581,0.36401 0.65496,0.63296 1.18913,0.80491 0.1953,0.0646 0.41157,0.11918 0.65067,0.16477 0.23908,0.0449 0.42826,0.0874 0.56863,0.12621 0.29293,0.0732 0.49151,0.14958 0.59666,0.22927 0.10488,0.08 0.15707,0.20831 0.15707,0.38493 0,0.19852 -0.0883,0.34784 -0.26644,0.44943 -0.17805,0.10088 -0.45234,0.15215 -0.82174,0.15215 -0.28253,0 -0.54915,-0.0358 -0.79649,-0.10727 -0.24842,-0.0707 -0.46977,-0.15577 -0.6647,-0.25521 -0.22723,-0.11129 -0.40241,-0.21649 -0.52656,-0.31342 -0.12346,-0.0969 -0.23258,-0.18633 -0.32742,-0.26853 h -0.17249 v 1.91342 c 0.25847,0.14646 0.60001,0.27903 1.02647,0.39965 0.42577,0.12062 0.9003,0.18159 1.42333,0.18159 0.94593,0 1.69174,-0.23009 2.23595,-0.68852 0.54459,-0.45842 0.81612,-1.06289 0.81612,-1.81245 0,-0.51263 -0.11858,-0.94026 -0.35548,-1.28309 -0.23764,-0.34248 -0.60292,-0.5933 -1.09938,-0.75233 -0.22295,-0.0693 -0.4453,-0.1262 -0.6668,-0.17178 -0.22185,-0.0452 -0.42843,-0.0914 -0.6205,-0.13883 -0.34929,-0.0905 -0.57137,-0.18088 -0.66539,-0.27134 -0.094,-0.0905 -0.14163,-0.22243 -0.14163,-0.39474 0,-0.18955 0.10379,-0.33623 0.3113,-0.43962 0.20822,-0.10339 0.46336,-0.15495 0.76705,-0.15495 0.36653,0 0.72851,0.0747 1.08678,0.22296 0.35682,0.14862 0.6753,0.34151 0.95495,0.57844 h 0.16196 v -1.83559 c -0.22653,-0.12457 -0.5413,-0.24176 -0.94443,-0.35197 -0.40315,-0.10985 -0.82441,-0.16477 -1.26416,-0.16477 z m -19.28353,7e-4 c -0.48464,0 -0.91226,0.0884 -1.2831,0.26503 -0.37082,0.17662 -0.73452,0.40701 -1.09028,0.69133 v -0.75583 h -2.32569 v 9.91977 h 2.32569 v -3.02399 c 0.29976,0.15904 0.59344,0.28331 0.88134,0.37091 0.28754,0.0883 0.63681,0.13252 1.0482,0.13252 0.44586,0 0.86413,-0.0857 1.25436,-0.25802 0.39021,-0.17232 0.74054,-0.42612 1.04891,-0.76285 0.29581,-0.31806 0.5349,-0.72328 0.71726,-1.21438 0.18238,-0.49145 0.27344,-1.03662 0.27344,-1.63576 0,-1.15881 -0.24981,-2.07 -0.74952,-2.73376 -0.50007,-0.66305 -1.19992,-0.99492 -2.10061,-0.99492 z m -1.037,1.76408 c 0.51836,0 0.8978,0.15906 1.13796,0.47747 0.2395,0.31807 0.35968,0.8301 0.35968,1.53551 0,0.72299 -0.14965,1.26382 -0.45013,1.62244 -0.29975,0.35971 -0.75584,0.53988 -1.36862,0.53988 -0.17124,0 -0.34506,-0.008 -0.52096,-0.0259 -0.17554,-0.0169 -0.33994,-0.0561 -0.49431,-0.11638 v -3.64595 c 0.20966,-0.12493 0.43034,-0.22035 0.66188,-0.28676 0.23156,-0.0664 0.45587,-0.10027 0.6745,-0.10027 z m 8.66823,2.28783 v 1.50745 c -0.16692,0.15508 -0.36151,0.2786 -0.58264,0.37301 -0.22113,0.0948 -0.43881,0.14233 -0.65348,0.14233 -0.27066,0 -0.47024,-0.0211 -0.59737,-0.0617 -0.1274,-0.0406 -0.23654,-0.10315 -0.32812,-0.18931 -0.0955,-0.0862 -0.15549,-0.17587 -0.17951,-0.27064 -0.0237,-0.0948 -0.0357,-0.21698 -0.0357,-0.3674 0,-0.22759 0.057,-0.41075 0.17037,-0.55039 0.11343,-0.13965 0.27752,-0.24615 0.49291,-0.31902 0.17482,-0.0603 0.43133,-0.11289 0.76986,-0.15776 0.33817,-0.0452 0.6526,-0.0807 0.94373,-0.10658 z m -3.80931,3.6235 v 0.75093 c -0.0654,-0.0341 -0.12903,-0.0629 -0.19141,-0.0856 -0.0621,-0.0226 -0.1421,-0.0337 -0.23979,-0.0337 -0.0933,0 -0.18641,0.0218 -0.27976,0.0652 -0.0937,0.0434 -0.17301,0.10438 -0.23909,0.183 -0.0693,0.0826 -0.12388,0.18238 -0.16406,0.29798 -0.0395,0.1156 -0.0602,0.24891 -0.0602,0.39825 0,0.28108 0.0597,0.5041 0.17809,0.66959 0.11885,0.16622 0.27653,0.2482 0.47397,0.2482 0.10189,0 0.19208,-0.0184 0.27064,-0.0561 0.0779,-0.0377 0.16162,-0.0959 0.25171,-0.17599 v 0.1844 h 0.52235 v -2.44629 z m -3.50221,0.63033 c -0.12414,0 -0.24802,0.0103 -0.3723,0.0323 -0.12456,0.0208 -0.214,0.0399 -0.26854,0.0554 v 0.42629 h 0.0469 c 0.0431,-0.0183 0.11261,-0.0434 0.21034,-0.0764 0.0977,-0.033 0.1894,-0.0498 0.27555,-0.0498 0.14252,0 0.2504,0.0188 0.32394,0.0561 0.0735,0.0373 0.11071,0.10465 0.11071,0.20193 v 0.01 c -0.15329,0.009 -0.30237,0.023 -0.44453,0.0428 -0.14323,0.0201 -0.26281,0.0532 -0.35967,0.10096 -0.0975,0.047 -0.17299,0.11133 -0.22577,0.19282 -0.0531,0.0822 -0.0799,0.18733 -0.0799,0.31621 0,0.16119 0.0522,0.29379 0.15635,0.39825 0.10407,0.10376 0.23371,0.15566 0.38844,0.15566 0.0657,0 0.12632,-0.006 0.18159,-0.0182 0.0546,-0.0118 0.10746,-0.031 0.15917,-0.0561 0.0364,-0.019 0.0758,-0.0441 0.11709,-0.0771 0.0417,-0.0319 0.0758,-0.0591 0.10379,-0.0827 v 0.1879 h 0.51745 v -1.20176 c 0,-0.2118 -0.0666,-0.36684 -0.19842,-0.46556 -0.13175,-0.0994 -0.34573,-0.14864 -0.64225,-0.14864 z m -1.49833,6.9e-4 c -0.12347,0 -0.24267,0.0174 -0.35759,0.0519 -0.11492,0.0345 -0.21665,0.0891 -0.3043,0.16337 -0.0912,0.0786 -0.16143,0.17774 -0.21244,0.29728 -0.051,0.11955 -0.0757,0.26222 -0.0757,0.427 0,0.1558 0.0235,0.29139 0.0708,0.40806 0.0473,0.11668 0.11411,0.21311 0.19983,0.28958 0.0868,0.0765 0.18931,0.13306 0.3064,0.16967 0.11777,0.037 0.24697,0.0554 0.38913,0.0554 0.108,0 0.20618,-0.0134 0.29519,-0.0379 0.089,-0.0244 0.1744,-0.0583 0.25662,-0.10026 v -0.48239 h -0.0729 c -0.0218,0.0226 -0.0454,0.0447 -0.0701,0.0673 -0.0247,0.0241 -0.0533,0.0454 -0.0863,0.0666 -0.034,0.0215 -0.0787,0.0406 -0.13106,0.0568 -0.0524,0.0168 -0.11126,0.0245 -0.17739,0.0245 -0.13999,0 -0.24924,-0.0435 -0.32604,-0.13181 -0.0768,-0.0883 -0.11424,-0.21725 -0.11424,-0.38633 0,-0.16478 0.0376,-0.29503 0.11221,-0.39124 0.075,-0.0958 0.1815,-0.14373 0.31971,-0.14373 0.0632,0 0.11818,0.008 0.16548,0.0231 0.0469,0.0147 0.0905,0.0345 0.13038,0.0575 0.041,0.0237 0.0761,0.0481 0.10448,0.0736 0.0283,0.0255 0.0529,0.0469 0.0737,0.0659 h 0.0729 v -0.48239 c -0.0811,-0.042 -0.16817,-0.0765 -0.26152,-0.10237 -0.0934,-0.0258 -0.19611,-0.0393 -0.3071,-0.0393 z m 3.60036,0.0428 c -0.0711,0 -0.14908,0.0174 -0.23348,0.0519 -0.0848,0.0352 -0.18417,0.10654 -0.29868,0.21315 v -0.25942 h -0.52306 v 1.76618 h 0.52306 v -1.18281 c 0.0654,-0.0251 0.12659,-0.0428 0.18369,-0.0533 0.0563,-0.0104 0.12239,-0.0154 0.19632,-0.0154 0.0327,0 0.0731,0.002 0.12265,0.007 0.0491,0.004 0.0843,0.01 0.10665,0.0182 h 0.0463 v -0.53988 c -0.0168,-0.002 -0.0377,-0.004 -0.061,-0.004 -0.0233,-0.001 -0.0441,-0.001 -0.0624,-0.001 z m 1.17302,0.37091 c 0.034,0 0.0716,0.003 0.11153,0.0106 0.041,0.008 0.0787,0.0203 0.11573,0.0372 v 0.86661 c -0.0406,0.0316 -0.0871,0.0574 -0.14022,0.0771 -0.0532,0.0198 -0.10271,0.0294 -0.15005,0.0294 -0.1213,0 -0.20979,-0.0392 -0.26433,-0.1178 -0.055,-0.0779 -0.0828,-0.2042 -0.0828,-0.37651 0,-0.16549 0.0341,-0.2937 0.1023,-0.38703 0.0685,-0.0926 0.17139,-0.13953 0.30781,-0.13953 z m -2.95182,0.57283 v 0.3667 c -0.0403,0.037 -0.0874,0.0678 -0.14163,0.0911 -0.0535,0.0226 -0.10611,0.0337 -0.15845,0.0337 -0.0654,0 -0.11397,-0.005 -0.14444,-0.0147 -0.0312,-0.01 -0.0577,-0.0251 -0.0799,-0.0463 -0.0225,-0.0205 -0.0366,-0.0429 -0.0434,-0.0659 -0.005,-0.0223 -0.008,-0.0524 -0.008,-0.089 0,-0.0553 0.0141,-0.10017 0.0414,-0.13392 0.0273,-0.0345 0.0668,-0.0595 0.11927,-0.0771 0.0427,-0.0154 0.10501,-0.0281 0.18721,-0.0386 0.0825,-0.0111 0.15855,-0.0202 0.22856,-0.0259 z"
         style="fill:#ffffff;stroke-width:0.35898522" />
    </g>
  </g>
</svg>
