<?xml version="1.0" encoding="utf-8"?>
<!-- Generator: Adobe Illustrator 18.1.1, SVG Export Plug-In . SVG Version: 6.00 Build 0)  -->
<svg version="1.1" id="Capa_1" xmlns="http://www.w3.org/2000/svg" xmlns:xlink="http://www.w3.org/1999/xlink" x="0px" y="0px"
	 viewBox="1.1 508 1195.7 212.1" enable-background="new 1.1 508 1195.7 212.1" xml:space="preserve">
<path fill="#FFFFFF" d="M43.8,613.4c-6.8-10.8-8.3-25.1-8.3-36.2c0-37.6,33.8-69.2,68.9-69.2h110.2l-42.8,42.9h-68.2
	C76.2,550.9,43.1,578.4,43.8,613.4L43.8,613.4z M85.8,582.7c2.8-9,11.7-20.5,20-26.6c-15.9,0-33.9,7.6-47.6,26.6H85.8L85.8,582.7z
	 M107.9,561.4c-6.2,5.5-13.1,13.7-16.6,21.3h33.1C120.8,575.1,114,566.8,107.9,561.4L107.9,561.4z M55.5,588.3
	c-4.1,7.3-6.1,15.6-6.8,23.9h30.9c0-8.3,1.5-16.6,4.2-23.9H55.5L55.5,588.3z M89.1,588.3c-2.7,7.3-4,15.6-4.7,23.9h46.8
	c-0.7-8.3-2-16.6-4.7-23.9H89.1L89.1,588.3z M156.8,582.7c-13.1-19.1-31.1-26.6-46.8-26.6c8.1,6.1,16.4,17.6,19.9,26.6H156.8
	L156.8,582.7z M131.9,588.3c2.8,7.3,4.1,15.6,4.1,23.9h30.9c-0.5-8.3-2.6-16.6-6.8-23.9H131.9L131.9,588.3z M58.3,645.7
	c13.7,19.9,31.7,26.7,47.6,26.7c-8.3-6.3-17.2-17.8-20-26.7H58.3L58.3,645.7z M107.9,667.6c6.1-5.5,12.9-14.3,16.4-21.9H91.2
	C94.8,653.2,101.6,662.1,107.9,667.6L107.9,667.6z M83.8,640.9c-2.7-8.3-4.2-16.4-4.2-23.9h-31c0.7,8.1,2.7,16.3,6.8,23.9H83.8
	L83.8,640.9z M126.4,640.9c2.7-7.6,4-15.8,4.7-23.9H84.4c0.7,8.1,2,16.3,4.7,23.9H126.4L126.4,640.9z M129.9,645.7
	c-3.5,8.9-11.8,20.4-19.9,26.7c15.7,0,33.7-6.8,46.8-26.7H129.9L129.9,645.7z M160.1,640.9c4.2-7.6,6.3-15.8,6.8-23.9H136
	c0,7.5-1.3,15.6-4.1,23.9H160.1L160.1,640.9z M171.8,614.2c0.8,36.3-32.3,63.7-59.8,63.7H43.8L1.1,720.2h110.2
	c35.2,0,68.9-31.5,68.9-69c0-11-1.3-25.3-8.3-36.3v-0.7H171.8z M493.8,672.2c-28.6,0-49.1-17.1-49.1-43.9c0-26.4,21.2-44,49.1-44
	c27.8,0,49.1,17.4,49.1,44C542.9,655.2,522.2,672.2,493.8,672.2L493.8,672.2z M983.1,586.5v83.9h-28.5l-0.4-8.4h-0.6
	c-3.2,2.8-9.7,10.3-28.1,10.3c-20.4,0-38.3-17.6-38.3-44c0-24.4,15.8-43.9,40.2-43.9c16.5,0,23.3,7.2,25.8,9.6h0.8l0.3-7.6H983.1
	L983.1,586.5z M762.7,586.6v84h-28.5l-0.4-8.4h-0.6c-3.2,2.8-9.7,10.3-28.1,10.3c-20.4,0-38.3-17.6-38.3-44
	c0-24.4,15.8-43.9,40.2-43.9c16.5,0,23.3,7.3,25.8,9.6h0.8l0.3-7.6L762.7,586.6L762.7,586.6z M624,586.6h29.4v84H624V586.6
	L624,586.6z M781.7,670.5V552H811v40.6h0.3c2-1.3,11.6-8,25.5-8c22.8,0,39.7,18.2,39.7,42.4c0,30.1-18.6,45.4-39.9,45.4
	c-16,0-24.1-7.4-26.2-9.6h-0.5l-0.4,7.7L781.7,670.5L781.7,670.5z M493.8,651.3c11.9,0,18.9-10.4,18.9-22.8c0-12.5-6.7-23-18.9-23
	c-12.8,0-18.9,10.4-18.9,23C474.8,640.7,481.9,651.3,493.8,651.3L493.8,651.3z M609.8,647.7c-1.5,0.4-5.4,1.4-8.1,1.4
	c-5.9,0-12.5-2.8-12.5-13v-28.3h18.4v-21.1h-18.4v-27h-29.4v27h-12.8v21.1h12.8v33.3c0,18.2,8.5,31.4,30.2,31.4
	c6.3,0,12.1-0.9,16-1.6L609.8,647.7L609.8,647.7z M275.6,667.4c8.2,2.5,20.7,4.7,34,4.7c25,0,50.1-8.8,50.1-36.2
	c0-37.6-52.2-32.4-52.2-47.4c0-7.6,8-9.3,15.8-9.3c10.9,0,24.6,5.2,27.7,6.4l2.3-25.9c-7.6-2.6-19.1-4-30-4
	c-24.7,0-49.2,9.6-49.2,34c0,37,52,29.2,52,48.6c0,7.4-7.5,10.3-17,10.3c-13.1,0-25.4-6.5-30.9-8.9L275.6,667.4L275.6,667.4z
	 M918.2,627.6c0,13.9,7.8,22.5,17.9,22.5c9.1,0,18-8.5,18-21.4c0-13-7.9-21.9-18-21.9C925.6,606.8,918.2,616.2,918.2,627.6
	L918.2,627.6z M697.8,627.6c0,13.9,7.8,22.5,17.9,22.5c9.1,0,18-8.5,18-21.4c0-13-7.9-21.9-18-21.9
	C705.2,606.9,697.8,616.2,697.8,627.6L697.8,627.6z M437.1,587.8c-2.2-0.6-10.2-3.4-20.9-3.4c-26.5,0-46.4,16.5-46.4,44
	c0,24.9,17.8,44,45.2,44c11.6,0,20.2-3.1,22.1-3.7l-1.4-24.4c-2.3,1-8.1,4.4-14.8,4.4c-11.8,0-20.5-8.3-20.5-20.1
	c0-12.3,9.3-20.3,20.8-20.3c6.5,0,12.3,3,14.5,4.1L437.1,587.8L437.1,587.8z M1108.4,670.5h29.3v-38.9h0.3l26,38.9h32.7l-31.5-44.6
	l30.7-39.4h-32.7l-25.2,34.7h-0.3v-69.1h-29.3V670.5L1108.4,670.5z M1002.1,670.5h28.5v-43.4c0-10.2,6.8-17.1,15.4-17.1
	c9.9,0,15.5,6.4,15.5,17.1v43.4h28.5v-50.6c0-19-12.3-35.4-35-35.4c-15.1,0-23,8.1-26.5,11.3h-0.6l-0.3-9.3H1002L1002.1,670.5
	L1002.1,670.5z M638.7,544c-9,0-16.5,7.4-16.5,16.4c0,9,7.4,16.4,16.5,16.4s16.5-7.4,16.5-16.4C655.3,551.4,647.9,544,638.7,544
	L638.7,544z M846.1,628.4c0-11.2-6.4-21.2-17.7-21.2c-9.9,0-17.8,8.4-17.8,21.2c0,12.4,6.5,21.2,17.8,21.2
	C838.7,649.8,846.1,641.2,846.1,628.4L846.1,628.4z"/>
</svg>
