<?xml version="1.0" encoding="UTF-8" standalone="no"?>
<svg
   xmlns:dc="http://purl.org/dc/elements/1.1/"
   xmlns:cc="http://creativecommons.org/ns#"
   xmlns:rdf="http://www.w3.org/1999/02/22-rdf-syntax-ns#"
   xmlns:svg="http://www.w3.org/2000/svg"
   xmlns="http://www.w3.org/2000/svg"
   id="svg6186"
   version="1.1"
   viewBox="0 0 26.45833 18.89937"
   height="18.89937mm"
   width="26.45833mm">
  <defs
     id="defs6180" />
  <metadata
     id="metadata6183">
    <rdf:RDF>
      <cc:Work
         rdf:about="">
        <dc:format>image/svg+xml</dc:format>
        <dc:type
           rdf:resource="http://purl.org/dc/dcmitype/StillImage" />
        <dc:title></dc:title>
      </cc:Work>
    </rdf:RDF>
  </metadata>
  <g
     transform="translate(-33.69691,-189.84973)"
     id="layer1">
    <g
       id="g6982"
       transform="translate(233.24571,67.707146)"
       style="fill:#ffffff">
      <path
         style="fill:#ffffff;stroke-width:0.66669971"
         d="m -197.53829,122.14258 c -1.11071,0 -2.01051,0.91377 -2.01051,2.03916 v 14.81975 c 0,1.12672 0.8998,2.04046 2.01051,2.04046 h 22.43601 c 1.1107,0 2.01181,-0.91441 2.01181,-2.04046 v -14.81975 c 0,-1.12605 -0.90111,-2.03916 -2.01181,-2.03916 z m 11.36515,1.42194 h 1.32428 l -3.24884,5.14479 h -1.3256 z m 2.55483,0 h 1.19275 c 0.10987,0 0.21746,0.009 0.32685,0.0118 l -3.24237,5.13307 h -1.52741 z m 2.71497,0.0638 c 3.72284,0.49869 6.60059,3.85918 6.60059,7.93138 0,4.41689 -3.38476,7.99649 -7.56028,7.99649 -0.12725,0 -0.23913,-0.004 -0.34116,-0.0103 -0.0728,0.003 -0.15069,0.0103 -0.22149,0.0103 h -8.53689 l 3.0275,-4.7932 h 5.75681 c 0.95405,0 3.03919,-0.78301 3.03919,-3.2098 0,-2.42678 -2.06914,-2.84389 -3.03919,-2.84389 h -1.9337 c 0,0 3.1959,-5.08231 3.20849,-5.08098 z m -16.96049,6.55631 h 2.28917 v 0.67061 h -0.76826 v 2.04697 h -0.75264 v -2.04697 h -0.76827 z m 3.07047,0 h 0.82166 l 0.91542,2.71758 h -0.7878 l -0.12246,-0.44924 h -0.85552 l -0.11844,0.44924 h -0.76826 z m 1.98578,0 h 1.25527 c 0.23334,0 0.41116,0.0224 0.53387,0.0664 0.12272,0.044 0.22149,0.12675 0.29691,0.24742 0.0753,0.12068 0.11314,0.26679 0.11314,0.44013 0,0.15134 -0.0292,0.28131 -0.0859,0.39065 -0.0567,0.10933 -0.13759,0.19762 -0.23838,0.26563 -0.0648,0.0433 -0.15169,0.0794 -0.26304,0.10807 0.0892,0.0327 0.15396,0.0663 0.19528,0.10027 0.0282,0.0219 0.0685,0.0693 0.12121,0.14194 0.0527,0.0733 0.0864,0.12994 0.10407,0.16928 l 0.36459,0.7878 h -0.85029 l -0.40239,-0.83077 c -0.0512,-0.10735 -0.0968,-0.17697 -0.13682,-0.20965 -0.0539,-0.042 -0.11516,-0.0625 -0.1837,-0.0625 h -0.0678 v 1.10422 h -0.75655 z m 3.65252,0 h 0.75526 v 1.47664 c 0,0.31002 -0.0252,0.54573 -0.0743,0.70707 -0.0494,0.16134 -0.14817,0.29947 -0.2982,0.41148 -0.14867,0.112 -0.33831,0.16928 -0.57164,0.16928 -0.24543,-10e-6 -0.43633,-0.038 -0.57165,-0.11198 -0.13481,-0.074 -0.23963,-0.18221 -0.3151,-0.32555 -0.0741,-0.14133 -0.11515,-0.31867 -0.13027,-0.52866 l 0.72008,-0.10939 c 0.001,0.11934 0.0101,0.20829 0.0275,0.26694 0.0176,0.0573 0.0479,0.10397 0.09,0.14063 0.0287,0.0232 0.071,0.0352 0.12372,0.0352 0.0847,0 0.14564,-0.0348 0.18495,-0.10417 0.0418,-0.0707 0.06,-0.18752 0.06,-0.35288 z m 1.25658,0 h 2.01834 v 0.57946 h -1.26439 v 0.43231 h 1.17194 v 0.55472 h -1.17194 v 0.53518 h 1.30085 v 0.61591 h -2.0548 z m 2.28917,0 h 2.28917 v 0.67061 h -0.76826 v 2.04697 h -0.75265 v -2.04697 h -0.76826 z m 3.07177,0 h 0.82166 l 0.91411,2.71758 h -0.78781 l -0.12247,-0.44924 h -0.85421 l -0.11969,0.44924 h -0.76827 z m -9.51349,0.54821 v 0.55211 h 0.31772 c 0.034,0 0.1018,-0.0131 0.20058,-0.0378 0.0499,-0.0113 0.09,-0.0386 0.1212,-0.0846 0.0323,-0.0453 0.0481,-0.0982 0.0481,-0.15757 0,-0.088 -0.0257,-0.1558 -0.0756,-0.20314 -0.0501,-0.0466 -0.14313,-0.069 -0.28126,-0.069 z m -2.34126,0.15625 -0.26563,0.97662 h 0.53518 z m 12.25452,0 -0.26695,0.97662 h 0.53649 z m -10.88727,3.87389 h 1.10292 l -3.0275,4.79321 h -1.32428 z m 2.33345,0 h 1.52612 l -3.0275,4.79321 h -1.52741 z"
         id="path6980" />
    </g>
  </g>
</svg>
