<?xml version="1.0" encoding="UTF-8" standalone="no"?>
<svg
   xmlns:dc="http://purl.org/dc/elements/1.1/"
   xmlns:cc="http://creativecommons.org/ns#"
   xmlns:rdf="http://www.w3.org/1999/02/22-rdf-syntax-ns#"
   xmlns:svg="http://www.w3.org/2000/svg"
   xmlns="http://www.w3.org/2000/svg"
   id="svg6186"
   version="1.1"
   viewBox="0 0 26.45829 8.2685699"
   height="8.2685699mm"
   width="26.45829mm">
  <defs
     id="defs6180" />
  <metadata
     id="metadata6183">
    <rdf:RDF>
      <cc:Work
         rdf:about="">
        <dc:format>image/svg+xml</dc:format>
        <dc:type
           rdf:resource="http://purl.org/dc/dcmitype/StillImage" />
        <dc:title></dc:title>
      </cc:Work>
    </rdf:RDF>
  </metadata>
  <g
     transform="translate(2.51879,-174.46013)"
     id="layer1">
    <g
       style="fill:#ffffff"
       transform="translate(176.24133,36.664143)"
       id="layer1-43">
      <path
         id="path14"
         d="m -162.17977,137.79601 c -2.02776,0 -3.45549,1.08753 -3.46715,2.64395 -0.0128,1.15128 1.0186,1.79298 1.79623,2.17567 0.79922,0.39231 1.06798,0.64351 1.06477,0.99411 -0.005,0.53641 -0.6382,0.78219 -1.22769,0.78219 -0.8211,0 -1.25775,-0.12089 -1.93241,-0.41986 l -0.26377,-0.12761 -0.28655,1.79282 c 0.47836,0.22314 1.36479,0.41707 2.28505,0.42728 2.15524,0 3.55565,-1.07423 3.57198,-2.73625 0.008,-0.91297 -0.53912,-1.60482 -1.72277,-2.17623 -0.71695,-0.37131 -1.15688,-0.61729 -1.15192,-0.99298 5.3e-4,-0.3331 0.3717,-0.68933 1.17529,-0.68933 0.67087,-0.0108 1.15702,0.14488 1.53533,0.30764 l 0.18399,0.0917 0.27745,-1.737 c -0.40573,-0.16071 -1.04326,-0.33612 -1.83783,-0.33612 z m -6.37031,0.14015 -1.28294,8.00933 h 2.05088 l 1.28353,-8.00933 z m -10.18274,0.001 -0.0273,0.16578 c 0.80478,0.20749 1.52446,0.50634 2.15517,0.87847 0,0 0.81668,0.43752 1.32453,0.98443 -0.58841,-0.42287 -1.00036,-0.64457 -1.26587,-0.76111 l 1.76491,6.73378 2.17112,-0.001 3.22958,-7.99509 h -2.17281 l -2.00815,5.46109 -0.2148,-1.11033 -0.71895,-3.68023 c -0.12396,-0.50752 -0.48433,-0.65786 -0.92974,-0.67565 z m 22.0677,0.006 c -0.49178,0 -0.86002,0.14215 -1.07558,0.66426 l -3.04558,7.34051 h 2.15401 c 0,0 0.35164,-0.98761 0.43126,-1.20433 0.23481,0 2.32787,0.005 2.62684,0.005 0.0613,0.27943 0.2501,1.19978 0.2501,1.19978 h 1.90393 l -1.66009,-8.00421 v -5.7e-4 z m 0.14412,2.15914 0.13843,0.69104 c 0,0 0.39348,1.91163 0.47458,2.31182 h -1.70224 c 0.17005,-0.46028 0.81692,-2.23833 0.81692,-2.23833 -0.012,0.021 0.16876,-0.46439 0.27231,-0.76453 z m 3.76625,4.89025 c -0.25373,0 -0.4529,0.20489 -0.4529,0.4569 0,0.25201 0.19917,0.45689 0.4529,0.45689 0.25379,0 0.45292,-0.20488 0.45292,-0.45689 0,-0.25201 -0.19913,-0.4569 -0.45292,-0.4569 z m 0,0.0689 c 0.20564,0 0.36746,0.17241 0.36746,0.38797 0,0.21526 -0.16182,0.38739 -0.36746,0.38739 -0.20563,0 -0.36772,-0.17213 -0.36744,-0.38739 0,-0.21556 0.16181,-0.38797 0.36744,-0.38797 z m -0.16521,0.1561 v 0.45633 h 0.0838 v -0.18914 h 0.069 c 0.0937,0 0.0991,0.0426 0.0991,0.0849 0.004,0.0741 -1.5e-4,0.0873 0.0165,0.10425 h 0.0872 c -0.0184,-0.0251 -0.0145,-0.0379 -0.0189,-0.10881 -0.003,-0.044 -0.005,-0.0995 -0.0638,-0.10938 v -0.002 c 0.0674,-0.0289 0.0763,-0.0728 0.0763,-0.10426 0,-0.11901 -0.10264,-0.1316 -0.14925,-0.1316 z m 0.0838,0.0621 h 0.0878 c 0.056,0 0.0917,0.0135 0.0917,0.0695 0,0.0327 -0.014,0.0729 -0.0826,0.0729 h -0.0969 z"
         style="fill:#ffffff;stroke-width:0.29168352" />
    </g>
  </g>
</svg>
