<svg xmlns="http://www.w3.org/2000/svg" xmlns:xlink="http://www.w3.org/1999/xlink" width="243" zoomAndPan="magnify" viewBox="0 0 182.25 30.000001" height="40" preserveAspectRatio="xMidYMid meet" version="1.0"><defs><g/></defs><g fill="#ffffff" fill-opacity="1"><g transform="translate(8.67225, 19.451644)"><g><path d="M 1.742188 -15.371094 C 1.742188 -15.371094 1.554688 -14.628906 1.695312 -14.628906 C 1.835938 -14.628906 4.667969 -14.859375 7.707031 -15.117188 L 3.320312 -1.371094 C 3.320312 -1.371094 3.691406 -0.90625 4.085938 -0.558594 C 4.691406 -0.0234375 4.691406 -0.0703125 5.0625 0.1875 C 5.0625 0.1875 10.542969 -13.746094 10.542969 -14.71875 C 10.542969 -14.929688 10.519531 -15 10.238281 -15.230469 C 10.191406 -15.253906 10.148438 -15.277344 10.101562 -15.324219 C 12.957031 -15.554688 15.417969 -15.789062 15.417969 -15.789062 L 15.601562 -16.53125 C 14.464844 -16.53125 11.167969 -16.300781 8.058594 -16.019531 C 8.035156 -16.019531 8.011719 -16.042969 8.011719 -16.042969 L 8.011719 -16.019531 C 4.804688 -15.765625 1.835938 -15.464844 1.742188 -15.371094 Z M 1.742188 -15.371094 "/></g></g></g><g fill="#ffffff" fill-opacity="1"><g transform="translate(20.558039, 19.451644)"><g><path d="M 7.175781 -6.734375 C 7.175781 -6.734375 7.523438 -6.269531 7.847656 -5.96875 C 8.40625 -5.457031 8.40625 -5.550781 8.730469 -5.292969 C 8.730469 -5.292969 10.496094 -7.730469 10.496094 -8.636719 C 10.496094 -8.824219 10.425781 -8.871094 10.191406 -9.078125 C 9.773438 -9.449219 8.382812 -10.332031 8.382812 -10.332031 L 8.265625 -9.960938 C 7.546875 -9.425781 5.0625 -6.058594 3.667969 -4.15625 C 4.480469 -6.082031 5.222656 -8.011719 5.222656 -8.476562 C 5.222656 -8.660156 5.199219 -8.707031 4.898438 -8.984375 C 4.457031 -9.355469 2.949219 -10.332031 2.949219 -10.332031 L 0 -1.183594 C 0 -1.183594 0.371094 -0.695312 0.765625 -0.394531 C 1.324219 0.117188 1.394531 0.0703125 1.71875 0.371094 C 1.71875 0.371094 2.277344 -0.882812 2.949219 -2.4375 C 3.96875 -3.761719 6.246094 -6.6875 7.683594 -8.242188 Z M 7.175781 -6.734375 "/></g></g></g><g fill="#ffffff" fill-opacity="1"><g transform="translate(29.890238, 19.451644)"><g><path d="M 1.902344 0.371094 L 1.925781 0.347656 L 1.949219 0.371094 L 1.949219 0.347656 C 2.136719 0.253906 2.738281 -0.0703125 3.4375 -0.582031 C 4.203125 -1.230469 5.457031 -2.648438 5.457031 -2.648438 L 5.269531 -2.832031 C 5.269531 -2.832031 3.550781 -1.441406 2.996094 -1.160156 C 2.832031 -1.089844 2.691406 -1.042969 2.554688 -1.023438 C 3.574219 -3.320312 5.457031 -7.753906 5.457031 -8.476562 C 5.457031 -8.660156 5.386719 -8.707031 5.132812 -8.984375 C 4.667969 -9.355469 3.15625 -10.332031 3.15625 -10.332031 L 0.230469 -1.183594 C 0.230469 -1.183594 0.582031 -0.695312 0.953125 -0.394531 C 1.554688 0.09375 1.578125 0.0703125 1.902344 0.324219 Z M 4.34375 -14.535156 C 4.34375 -14.535156 3.644531 -12.257812 3.644531 -11.980469 C 3.644531 -11.679688 5.640625 -10.191406 5.875 -10.191406 C 6.035156 -10.191406 7.035156 -12.28125 6.894531 -12.515625 C 6.734375 -12.816406 6.363281 -13.234375 5.828125 -13.582031 C 5.269531 -13.976562 4.714844 -14.535156 4.34375 -14.535156 Z M 4.34375 -14.535156 "/></g></g></g><g fill="#ffffff" fill-opacity="1"><g transform="translate(35.879559, 19.451644)"><g><path d="M 5.945312 -1.183594 C 5.945312 -1.183594 6.292969 -0.695312 6.734375 -0.394531 C 7.289062 0.09375 7.3125 0.0703125 7.640625 0.347656 L 7.640625 0.371094 L 7.664062 0.371094 L 7.664062 0.347656 C 7.800781 0.277344 8.40625 -0.046875 9.125 -0.582031 C 9.960938 -1.230469 11.144531 -2.648438 11.144531 -2.648438 L 11.027344 -2.832031 C 11.027344 -2.832031 9.289062 -1.441406 8.707031 -1.160156 L 8.265625 -1 C 9.265625 -3.296875 11.144531 -7.753906 11.144531 -8.476562 C 11.144531 -8.660156 11.144531 -8.707031 10.914062 -8.984375 C 10.402344 -9.355469 8.914062 -10.332031 8.914062 -10.332031 L 8.824219 -10.03125 C 8.265625 -9.773438 5.503906 -6.082031 4.0625 -4.085938 C 4.875 -6.035156 5.640625 -8.011719 5.640625 -8.476562 C 5.640625 -8.660156 5.617188 -8.707031 5.339844 -8.984375 C 4.945312 -9.355469 3.390625 -10.332031 3.390625 -10.332031 L 0.464844 -1.183594 C 0.464844 -1.183594 0.835938 -0.695312 1.230469 -0.394531 C 1.835938 0.117188 1.835938 0.0703125 2.160156 0.371094 C 2.160156 0.371094 2.691406 -0.8125 3.34375 -2.34375 C 4.363281 -3.667969 6.847656 -6.894531 8.289062 -8.429688 Z M 5.945312 -1.183594 "/></g></g></g><g fill="#ffffff" fill-opacity="1"><g transform="translate(47.254628, 19.451644)"><g><path d="M 1.902344 0.371094 L 1.925781 0.347656 L 1.949219 0.371094 L 1.949219 0.347656 C 2.136719 0.253906 2.738281 -0.0703125 3.4375 -0.582031 C 4.203125 -1.230469 5.457031 -2.648438 5.457031 -2.648438 L 5.269531 -2.832031 C 5.269531 -2.832031 3.550781 -1.441406 2.996094 -1.160156 C 2.832031 -1.089844 2.691406 -1.042969 2.554688 -1.023438 C 3.574219 -3.320312 5.457031 -7.753906 5.457031 -8.476562 C 5.457031 -8.660156 5.386719 -8.707031 5.132812 -8.984375 C 4.667969 -9.355469 3.15625 -10.332031 3.15625 -10.332031 L 0.230469 -1.183594 C 0.230469 -1.183594 0.582031 -0.695312 0.953125 -0.394531 C 1.554688 0.09375 1.578125 0.0703125 1.902344 0.324219 Z M 4.34375 -14.535156 C 4.34375 -14.535156 3.644531 -12.257812 3.644531 -11.980469 C 3.644531 -11.679688 5.640625 -10.191406 5.875 -10.191406 C 6.035156 -10.191406 7.035156 -12.28125 6.894531 -12.515625 C 6.734375 -12.816406 6.363281 -13.234375 5.828125 -13.582031 C 5.269531 -13.976562 4.714844 -14.535156 4.34375 -14.535156 Z M 4.34375 -14.535156 "/></g></g></g><g fill="#ffffff" fill-opacity="1"><g transform="translate(53.243949, 19.451644)"><g><path d="M 2.183594 0.371094 C 2.183594 0.371094 2.925781 0.0234375 3.691406 -0.582031 C 4.527344 -1.230469 5.710938 -2.648438 5.710938 -2.648438 L 5.550781 -2.832031 C 5.550781 -2.832031 3.832031 -1.441406 3.25 -1.160156 L 2.785156 -1 C 3.761719 -3.203125 5.59375 -7.429688 6.363281 -9.542969 C 7.429688 -9.613281 8.265625 -9.613281 8.265625 -9.613281 L 8.476562 -9.984375 C 8.476562 -9.984375 7.59375 -10.101562 6.59375 -10.214844 C 6.664062 -10.449219 6.710938 -10.609375 6.710938 -10.703125 C 6.710938 -10.867188 6.6875 -10.960938 6.429688 -11.214844 C 5.945312 -11.609375 4.433594 -12.585938 4.433594 -12.585938 L 3.621094 -10.261719 C 2.277344 -10.078125 1.324219 -9.613281 1.324219 -9.613281 L 1.441406 -8.289062 C 1.789062 -8.636719 2.460938 -8.894531 3.203125 -9.078125 L 0.464844 -1.183594 C 0.464844 -1.183594 0.835938 -0.695312 1.253906 -0.394531 C 1.8125 0.117188 1.8125 0.0703125 2.183594 0.371094 Z M 2.183594 0.371094 "/></g></g></g><g fill="#ffffff" fill-opacity="1"><g transform="translate(60.092208, 19.451644)"><g><path d="M 0.394531 -1.183594 C 0.394531 -1.183594 0.765625 -0.695312 1.089844 -0.394531 C 1.71875 0.117188 1.71875 0.0703125 2.089844 0.371094 C 2.34375 0.371094 4.527344 -1.53125 6.664062 -3.714844 L 6.292969 -2.507812 C 6.105469 -1.972656 5.640625 -0.929688 5.15625 0.394531 C 4.15625 1 3.226562 1.671875 2.484375 2.320312 C 0.207031 4.457031 0.253906 6.058594 0.253906 6.804688 C 0.253906 7.546875 0.253906 8.101562 0.417969 8.335938 C 0.671875 8.496094 1.160156 8.566406 1.53125 8.636719 C 1.902344 8.707031 2.390625 8.871094 2.691406 8.753906 C 2.996094 8.589844 5.015625 5.96875 6.175781 3.621094 C 6.757812 2.320312 7.476562 0.625 8.035156 -0.671875 C 8.476562 -0.929688 11.050781 -2.089844 11.050781 -2.089844 C 11.238281 -2.253906 11.261719 -2.648438 11.261719 -2.648438 C 10.449219 -2.648438 9.054688 -1.8125 8.382812 -1.460938 C 8.542969 -1.835938 8.660156 -2.183594 8.753906 -2.460938 C 9.796875 -4.804688 11.050781 -7.894531 11.050781 -8.476562 C 11.050781 -8.660156 11.003906 -8.707031 10.75 -8.984375 C 10.285156 -9.355469 8.777344 -10.332031 8.777344 -10.332031 L 7.246094 -5.527344 C 5.617188 -3.527344 3.484375 -1.671875 2.625 -0.835938 C 3.597656 -3.066406 5.574219 -7.730469 5.574219 -8.476562 C 5.574219 -8.660156 5.527344 -8.707031 5.292969 -8.984375 C 4.804688 -9.355469 3.320312 -10.332031 3.320312 -10.332031 Z M 1.183594 7.570312 C 1.136719 7.570312 1.136719 7.246094 1.136719 7.175781 C 1.136719 7.105469 1.136719 4.945312 2.578125 3.484375 C 3.320312 2.785156 3.855469 2.136719 4.691406 1.441406 C 3.527344 4.273438 2.019531 7.570312 1.183594 7.570312 Z M 1.183594 7.570312 "/></g></g></g><g fill="#ffffff" fill-opacity="1"><g transform="translate(71.583353, 19.451644)"><g/></g></g><g fill="#ffffff" fill-opacity="1"><g transform="translate(76.22624, 19.451644)"><g><path d="M 1.742188 -15.371094 C 1.742188 -15.371094 1.554688 -14.628906 1.695312 -14.628906 C 1.835938 -14.628906 4.667969 -14.859375 7.707031 -15.117188 L 3.320312 -1.371094 C 3.320312 -1.371094 3.691406 -0.90625 4.085938 -0.558594 C 4.691406 -0.0234375 4.691406 -0.0703125 5.0625 0.1875 C 5.0625 0.1875 10.542969 -13.746094 10.542969 -14.71875 C 10.542969 -14.929688 10.519531 -15 10.238281 -15.230469 C 10.191406 -15.253906 10.148438 -15.277344 10.101562 -15.324219 C 12.957031 -15.554688 15.417969 -15.789062 15.417969 -15.789062 L 15.601562 -16.53125 C 14.464844 -16.53125 11.167969 -16.300781 8.058594 -16.019531 C 8.035156 -16.019531 8.011719 -16.042969 8.011719 -16.042969 L 8.011719 -16.019531 C 4.804688 -15.765625 1.835938 -15.464844 1.742188 -15.371094 Z M 1.742188 -15.371094 "/></g></g></g><g fill="#ffffff" fill-opacity="1"><g transform="translate(88.112029, 19.451644)"><g><path d="M 8.847656 -8.195312 C 8.847656 -8.195312 7.546875 -10.285156 6.964844 -10.285156 C 5.386719 -10.285156 0.464844 -8.359375 0.464844 -3.226562 C 0.464844 -2.320312 0.535156 -1.089844 0.648438 -0.953125 C 1.183594 -0.535156 2.460938 0.300781 2.785156 0.300781 C 2.902344 0.230469 3.597656 -0.09375 4.320312 -0.648438 C 5.15625 -1.277344 6.316406 -2.671875 6.316406 -2.671875 L 6.175781 -2.878906 C 6.175781 -2.878906 4.480469 -1.460938 3.855469 -1.230469 C 3.296875 -0.953125 2.902344 -0.859375 2.902344 -0.859375 C 2.902344 -0.859375 2.691406 -0.859375 2.691406 -1.625 C 2.691406 -2.230469 2.761719 -2.855469 2.902344 -3.4375 C 3.527344 -3.714844 4.851562 -4.363281 5.804688 -4.945312 C 7.105469 -5.757812 8.847656 -8.195312 8.847656 -8.195312 Z M 7.546875 -8.476562 L 7.640625 -8.476562 C 7.289062 -7.917969 6.175781 -6.222656 5.574219 -5.6875 C 4.945312 -5.15625 3.667969 -4.386719 3.089844 -4.0625 C 3.925781 -6.570312 5.921875 -8.476562 7.546875 -8.476562 Z M 7.546875 -8.476562 "/></g></g></g><g fill="#ffffff" fill-opacity="1"><g transform="translate(96.260296, 19.451644)"><g><path d="M 8.496094 -10.167969 C 8.496094 -10.167969 8.453125 -9.519531 8.3125 -8.894531 C 7.894531 -9.496094 7.289062 -10.285156 6.988281 -10.285156 C 5.386719 -10.285156 0.464844 -8.359375 0.464844 -3.226562 C 0.464844 -2.320312 0.535156 -1.089844 0.625 -0.953125 C 1.136719 -0.535156 2.4375 0.300781 2.714844 0.300781 L 2.761719 0.300781 C 2.832031 0.230469 3.550781 -0.09375 4.34375 -0.648438 C 5.132812 -1.277344 6.292969 -2.671875 6.292969 -2.671875 L 6.152344 -2.878906 C 6.152344 -2.878906 4.480469 -1.460938 3.832031 -1.230469 C 3.25 -0.953125 2.832031 -0.859375 2.832031 -0.859375 C 2.832031 -0.859375 2.691406 -0.859375 2.691406 -1.625 C 2.691406 -5.199219 5.386719 -8.476562 7.476562 -8.476562 C 7.800781 -8.476562 8.011719 -8.453125 8.195312 -8.40625 L 8.035156 -8.011719 C 7.847656 -7.59375 7.429688 -6.871094 7.429688 -6.78125 C 7.429688 -6.734375 7.640625 -6.664062 8.011719 -6.664062 C 8.453125 -6.664062 9.890625 -9.242188 9.890625 -9.542969 C 9.890625 -9.820312 8.847656 -10.167969 8.496094 -10.167969 Z M 8.496094 -10.167969 "/></g></g></g><g fill="#ffffff" fill-opacity="1"><g transform="translate(104.52464, 19.451644)"><g><path d="M 5.710938 -1.183594 C 5.710938 -1.183594 6.082031 -0.695312 6.476562 -0.394531 C 7.035156 0.09375 7.058594 0.0703125 7.382812 0.347656 L 7.382812 0.371094 L 7.40625 0.371094 L 7.40625 0.347656 C 7.546875 0.277344 8.171875 -0.046875 8.894531 -0.582031 C 9.683594 -1.230469 10.914062 -2.648438 10.914062 -2.648438 L 10.773438 -2.832031 C 10.773438 -2.832031 9.007812 -1.441406 8.453125 -1.160156 L 8.011719 -1 C 9.007812 -3.296875 10.914062 -7.753906 10.914062 -8.476562 C 10.914062 -8.660156 10.890625 -8.707031 10.609375 -8.984375 C 10.148438 -9.355469 8.636719 -10.332031 8.636719 -10.332031 L 8.519531 -10.007812 C 7.824219 -9.613281 4.597656 -5.15625 3.390625 -3.484375 C 4.96875 -7.570312 7.222656 -13.535156 7.222656 -14.140625 C 7.222656 -14.371094 7.199219 -14.441406 6.941406 -14.699219 C 6.523438 -15.09375 4.96875 -16.019531 4.96875 -16.019531 L 0.230469 -1.183594 C 0.230469 -1.183594 0.582031 -0.695312 0.976562 -0.394531 C 1.507812 0.117188 1.578125 0.0703125 1.878906 0.371094 C 1.878906 0.371094 2.253906 -0.582031 2.808594 -2.019531 C 3.597656 -3.042969 6.386719 -6.664062 8.011719 -8.382812 Z M 5.710938 -1.183594 "/></g></g></g><g fill="#ffffff" fill-opacity="1"><g transform="translate(115.667567, 19.451644)"><g><path d="M 5.945312 -1.183594 C 5.945312 -1.183594 6.292969 -0.695312 6.734375 -0.394531 C 7.289062 0.09375 7.3125 0.0703125 7.640625 0.347656 L 7.640625 0.371094 L 7.664062 0.371094 L 7.664062 0.347656 C 7.800781 0.277344 8.40625 -0.046875 9.125 -0.582031 C 9.960938 -1.230469 11.144531 -2.648438 11.144531 -2.648438 L 11.027344 -2.832031 C 11.027344 -2.832031 9.289062 -1.441406 8.707031 -1.160156 L 8.265625 -1 C 9.265625 -3.296875 11.144531 -7.753906 11.144531 -8.476562 C 11.144531 -8.660156 11.144531 -8.707031 10.914062 -8.984375 C 10.402344 -9.355469 8.914062 -10.332031 8.914062 -10.332031 L 8.824219 -10.03125 C 8.265625 -9.773438 5.503906 -6.082031 4.0625 -4.085938 C 4.875 -6.035156 5.640625 -8.011719 5.640625 -8.476562 C 5.640625 -8.660156 5.617188 -8.707031 5.339844 -8.984375 C 4.945312 -9.355469 3.390625 -10.332031 3.390625 -10.332031 L 0.464844 -1.183594 C 0.464844 -1.183594 0.835938 -0.695312 1.230469 -0.394531 C 1.835938 0.117188 1.835938 0.0703125 2.160156 0.371094 C 2.160156 0.371094 2.691406 -0.8125 3.34375 -2.34375 C 4.363281 -3.667969 6.847656 -6.894531 8.289062 -8.429688 Z M 5.945312 -1.183594 "/></g></g></g><g fill="#ffffff" fill-opacity="1"><g transform="translate(127.042636, 19.451644)"><g><path d="M 6.941406 -10.285156 C 5.386719 -10.285156 0.464844 -8.359375 0.464844 -3.226562 C 0.464844 -2.320312 0.535156 -1.089844 0.648438 -0.953125 C 1.113281 -0.535156 2.460938 0.300781 2.738281 0.300781 C 2.738281 0.300781 2.785156 0.300781 2.785156 0.300781 C 2.878906 0.230469 3.460938 0 4.386719 -0.582031 C 8.496094 -3.042969 8.589844 -8.078125 8.589844 -8.078125 L 8.242188 -8.148438 C 8.242188 -8.148438 8.21875 -3.832031 3.808594 -1.230469 C 3.296875 -0.859375 2.878906 -0.859375 2.878906 -0.859375 C 2.878906 -0.859375 2.691406 -0.859375 2.691406 -1.625 C 2.691406 -5.199219 5.410156 -8.476562 7.476562 -8.476562 C 8.496094 -8.476562 8.753906 -8.195312 8.753906 -8.195312 C 8.753906 -8.195312 7.476562 -10.285156 6.941406 -10.285156 Z M 6.941406 -10.285156 "/></g></g></g><g fill="#ffffff" fill-opacity="1"><g transform="translate(135.794476, 19.451644)"><g><path d="M 1.972656 0.371094 C 1.972656 0.371094 2.691406 0.0234375 3.484375 -0.582031 C 4.273438 -1.230469 5.503906 -2.648438 5.503906 -2.648438 L 5.316406 -2.832031 C 5.316406 -2.832031 3.644531 -1.441406 3.042969 -1.160156 C 2.832031 -1.066406 2.671875 -1.023438 2.507812 -0.976562 C 3.855469 -4.433594 7.3125 -13.398438 7.3125 -14.140625 C 7.3125 -14.371094 7.265625 -14.441406 6.988281 -14.699219 C 6.570312 -15.09375 5.015625 -16.019531 5.015625 -16.019531 L 0.230469 -1.183594 C 0.230469 -1.183594 0.605469 -0.695312 1 -0.394531 C 1.578125 0.117188 1.648438 0.0703125 1.972656 0.371094 Z M 1.972656 0.371094 "/></g></g></g><g fill="#ffffff" fill-opacity="1"><g transform="translate(141.714157, 19.451644)"><g><path d="M 6.941406 -10.285156 C 5.386719 -10.285156 0.464844 -8.359375 0.464844 -3.226562 C 0.464844 -2.320312 0.535156 -1.089844 0.648438 -0.953125 C 1.113281 -0.535156 2.460938 0.300781 2.738281 0.300781 C 2.738281 0.300781 2.785156 0.300781 2.785156 0.300781 C 2.878906 0.230469 3.460938 0 4.386719 -0.582031 C 8.496094 -3.042969 8.589844 -8.078125 8.589844 -8.078125 L 8.242188 -8.148438 C 8.242188 -8.148438 8.21875 -3.832031 3.808594 -1.230469 C 3.296875 -0.859375 2.878906 -0.859375 2.878906 -0.859375 C 2.878906 -0.859375 2.691406 -0.859375 2.691406 -1.625 C 2.691406 -5.199219 5.410156 -8.476562 7.476562 -8.476562 C 8.496094 -8.476562 8.753906 -8.195312 8.753906 -8.195312 C 8.753906 -8.195312 7.476562 -10.285156 6.941406 -10.285156 Z M 6.941406 -10.285156 "/></g></g></g><g fill="#ffffff" fill-opacity="1"><g transform="translate(150.465997, 19.451644)"><g><path d="M 8.847656 -2.460938 C 9.84375 -4.804688 11.074219 -7.894531 11.074219 -8.476562 C 11.074219 -8.660156 11.074219 -8.707031 10.796875 -8.984375 C 10.378906 -9.355469 8.871094 -10.332031 8.871094 -10.332031 L 8.3125 -8.660156 C 7.917969 -9.265625 7.175781 -10.285156 6.804688 -10.285156 C 5.246094 -10.285156 0.230469 -8.359375 0.230469 -3.226562 C 0.230469 -2.320312 0.371094 -1.089844 0.511719 -0.953125 C 0.976562 -0.535156 2.320312 0.300781 2.648438 0.300781 C 3.15625 0.300781 5.550781 -2.460938 6.894531 -4.273438 L 6.316406 -2.507812 C 6.152344 -1.972656 5.734375 -0.929688 5.246094 0.394531 C 4.226562 1 3.273438 1.671875 2.554688 2.320312 C 0.230469 4.457031 0.230469 6.058594 0.230469 6.804688 C 0.230469 7.546875 0.300781 8.101562 0.488281 8.335938 C 0.695312 8.496094 1.230469 8.566406 1.625 8.636719 C 1.949219 8.707031 2.460938 8.871094 2.785156 8.753906 C 3.066406 8.589844 5.109375 5.96875 6.246094 3.621094 L 8.101562 -0.671875 C 8.519531 -0.929688 11.144531 -2.089844 11.144531 -2.089844 C 11.261719 -2.253906 11.355469 -2.648438 11.355469 -2.648438 C 10.519531 -2.648438 9.125 -1.8125 8.453125 -1.460938 C 8.566406 -1.835938 8.707031 -2.183594 8.847656 -2.460938 Z M 2.714844 -0.859375 C 2.714844 -0.859375 2.578125 -0.859375 2.578125 -1.625 C 2.578125 -5.199219 5.269531 -8.476562 7.359375 -8.476562 C 7.777344 -8.476562 8.035156 -8.429688 8.21875 -8.359375 L 7.289062 -5.480469 C 6.082031 -4.109375 3.179688 -0.859375 2.714844 -0.859375 Z M 1.277344 7.570312 C 1.207031 7.570312 1.207031 7.246094 1.207031 7.175781 C 1.207031 7.105469 1.160156 4.945312 2.671875 3.484375 C 3.320312 2.785156 3.925781 2.136719 4.78125 1.441406 C 3.574219 4.273438 2.066406 7.570312 1.277344 7.570312 Z M 1.277344 7.570312 "/></g></g></g><g fill="#ffffff" fill-opacity="1"><g transform="translate(161.35357, 19.451644)"><g><path d="M 0.394531 -1.183594 C 0.394531 -1.183594 0.765625 -0.695312 1.089844 -0.394531 C 1.71875 0.117188 1.71875 0.0703125 2.089844 0.371094 C 2.34375 0.371094 4.527344 -1.53125 6.664062 -3.714844 L 6.292969 -2.507812 C 6.105469 -1.972656 5.640625 -0.929688 5.15625 0.394531 C 4.15625 1 3.226562 1.671875 2.484375 2.320312 C 0.207031 4.457031 0.253906 6.058594 0.253906 6.804688 C 0.253906 7.546875 0.253906 8.101562 0.417969 8.335938 C 0.671875 8.496094 1.160156 8.566406 1.53125 8.636719 C 1.902344 8.707031 2.390625 8.871094 2.691406 8.753906 C 2.996094 8.589844 5.015625 5.96875 6.175781 3.621094 C 6.757812 2.320312 7.476562 0.625 8.035156 -0.671875 C 8.476562 -0.929688 11.050781 -2.089844 11.050781 -2.089844 C 11.238281 -2.253906 11.261719 -2.648438 11.261719 -2.648438 C 10.449219 -2.648438 9.054688 -1.8125 8.382812 -1.460938 C 8.542969 -1.835938 8.660156 -2.183594 8.753906 -2.460938 C 9.796875 -4.804688 11.050781 -7.894531 11.050781 -8.476562 C 11.050781 -8.660156 11.003906 -8.707031 10.75 -8.984375 C 10.285156 -9.355469 8.777344 -10.332031 8.777344 -10.332031 L 7.246094 -5.527344 C 5.617188 -3.527344 3.484375 -1.671875 2.625 -0.835938 C 3.597656 -3.066406 5.574219 -7.730469 5.574219 -8.476562 C 5.574219 -8.660156 5.527344 -8.707031 5.292969 -8.984375 C 4.804688 -9.355469 3.320312 -10.332031 3.320312 -10.332031 Z M 1.183594 7.570312 C 1.136719 7.570312 1.136719 7.246094 1.136719 7.175781 C 1.136719 7.105469 1.136719 4.945312 2.578125 3.484375 C 3.320312 2.785156 3.855469 2.136719 4.691406 1.441406 C 3.527344 4.273438 2.019531 7.570312 1.183594 7.570312 Z M 1.183594 7.570312 "/></g></g></g></svg>