<svg xmlns="http://www.w3.org/2000/svg" xmlns:xlink="http://www.w3.org/1999/xlink" width="50" zoomAndPan="magnify" viewBox="0 0 37.5 37.499999" height="50" preserveAspectRatio="xMidYMid meet" version="1.0"><defs><g/><clipPath id="b7f83d1440"><path d="M 0 0 L 37.007812 0 L 37.007812 37.007812 L 0 37.007812 Z M 0 0 " clip-rule="nonzero"/></clipPath><clipPath id="ed0df00c8c"><path d="M 18.75 0 C 8.394531 0 0 8.394531 0 18.75 C 0 29.105469 8.394531 37.5 18.75 37.5 C 29.105469 37.5 37.5 29.105469 37.5 18.75 C 37.5 8.394531 29.105469 0 18.75 0 " clip-rule="nonzero"/></clipPath></defs><g clip-path="url(#b7f83d1440)"><g clip-path="url(#ed0df00c8c)"><path fill="#f2b7b7" d="M 0 0 L 37.5 0 L 37.5 37.5 L 0 37.5 Z M 0 0 " fill-opacity="1" fill-rule="nonzero"/></g></g><g fill="#000000" fill-opacity="1"><g transform="translate(2.291941, 30.092026)"><g><path d="M 2.09375 -18.496094 C 2.09375 -18.496094 1.871094 -17.601562 2.039062 -17.601562 C 2.207031 -17.601562 5.617188 -17.882812 9.277344 -18.1875 L 3.996094 -1.648438 C 3.996094 -1.648438 4.441406 -1.089844 4.917969 -0.671875 C 5.644531 -0.0273438 5.644531 -0.0820312 6.089844 0.222656 C 6.089844 0.222656 12.683594 -16.539062 12.683594 -17.714844 C 12.683594 -17.964844 12.65625 -18.050781 12.320312 -18.328125 C 12.265625 -18.355469 12.210938 -18.386719 12.152344 -18.441406 C 15.589844 -18.71875 18.550781 -19 18.550781 -19 L 18.777344 -19.894531 C 17.40625 -19.894531 13.4375 -19.613281 9.695312 -19.277344 C 9.667969 -19.277344 9.640625 -19.308594 9.640625 -19.308594 L 9.640625 -19.277344 C 5.785156 -18.972656 2.207031 -18.609375 2.09375 -18.496094 Z M 2.09375 -18.496094 "/></g></g></g><g fill="#000000" fill-opacity="1"><g transform="translate(16.597579, 30.092026)"><g><path d="M 2.09375 -18.496094 C 2.09375 -18.496094 1.871094 -17.601562 2.039062 -17.601562 C 2.207031 -17.601562 5.617188 -17.882812 9.277344 -18.1875 L 3.996094 -1.648438 C 3.996094 -1.648438 4.441406 -1.089844 4.917969 -0.671875 C 5.644531 -0.0273438 5.644531 -0.0820312 6.089844 0.222656 C 6.089844 0.222656 12.683594 -16.539062 12.683594 -17.714844 C 12.683594 -17.964844 12.65625 -18.050781 12.320312 -18.328125 C 12.265625 -18.355469 12.210938 -18.386719 12.152344 -18.441406 C 15.589844 -18.71875 18.550781 -19 18.550781 -19 L 18.777344 -19.894531 C 17.40625 -19.894531 13.4375 -19.613281 9.695312 -19.277344 C 9.667969 -19.277344 9.640625 -19.308594 9.640625 -19.308594 L 9.640625 -19.277344 C 5.785156 -18.972656 2.207031 -18.609375 2.09375 -18.496094 Z M 2.09375 -18.496094 "/></g></g></g></svg>